<?xml version="1.0" encoding="UTF-8"?>
<svg width="300px" height="300px" viewBox="0 0 300 300" version="1.1" xmlns="http://www.w3.org/2000/svg" xmlns:xlink="http://www.w3.org/1999/xlink">
    <g id="Artboard-Copy-2" stroke="none" stroke-width="1" fill="none" fill-rule="evenodd">
        <g id="undraw_Hamburger_8ge6" transform="translate(2.000000, 64.000000)">
            <path d="M202.936859,142.117864 C230.56005,141.714893 258.182301,141.945966 285.803613,142.811086 C288.179754,142.885549 290.645434,142.981185 292.743793,143.759425 C294.842151,144.537666 296.457003,146.20716 295.882894,147.811045 C285.100441,148.205524 274.306855,148.327413 263.502139,148.176712 C261.149141,149.602097 258.56586,151.748975 260.011951,153.671276 C261.012592,155.001438 263.482606,155.397437 265.642659,155.400553 C269.554912,155.406199 273.4829,154.61202 277.337263,155.077972 C281.191627,155.543924 285.037599,158.051069 283.908513,160.653847 C283.051092,162.630372 279.798194,163.608796 276.837918,163.783509 C273.877642,163.958223 270.846517,163.594917 267.952955,164.06297 C265.203189,164.507756 262.82083,165.663512 260.247348,166.470305 C256.187847,167.742964 251.687802,168.136192 247.260348,168.470706 C213.263626,171.039309 178.984982,171.018928 144.787894,170.995664 C130.943487,170.986242 116.911036,170.960312 103.542113,168.460793 C95.9215552,167.036013 88.6190519,164.823475 80.9023483,163.675426 C71.6848454,162.3041 62.1584054,162.490239 52.7321787,162.531339 C36.1841264,162.603491 19.6500287,162.209105 3.1298857,161.348181 C1.90052,161.284078 0.391505439,161.066965 0.0597337565,160.241936 C-0.327454488,159.279092 1.24391431,158.527779 2.57215823,158.143548 C10.0985388,155.989009 17.7514127,154.57726 25.4585746,153.921623 C29.3618188,153.582183 33.3840129,153.409391 36.9739786,152.291965 C40.5639443,151.174538 43.7002694,148.831148 43.6665659,146.0979 C43.6562853,145.264119 43.3718079,144.372165 43.9344624,143.635695 C44.6815943,142.657751 46.5198473,142.433391 48.1058656,142.326773 C65.6878334,141.144833 83.3656209,140.651439 101.027377,140.849704 C107.240095,140.919448 113.478415,141.073852 119.647137,140.556311 C124.701608,140.132255 129.65232,139.261613 134.633658,138.530674 C141.320076,137.549537 170.419202,132.466873 174.664093,136.59098 C177.841744,139.678212 171.281218,140.344337 179.803879,141.60412 C187.224651,142.701027 195.410394,142.227662 202.936859,142.117864 Z" id="Path" fill="#DCE2E6" fill-rule="nonzero"></path>
            <path d="M89.1445902,129.767733 C89.1445902,129.767733 76.6579148,154.990357 87.284873,154.990357 C97.9118312,154.990357 231.811516,155.532779 235.53095,148.481293 C238.136835,143.540932 236.700067,125.953576 235.606189,115.865542 C235.165127,111.794477 231.683996,108.785255 227.677881,109.012013 C198.719067,110.643698 90.5338459,116.69068 91.0043074,115.935987 C91.934166,114.444327 91.2699832,114.851143 91.2699832,114.851143 C91.2699832,114.851143 87.0191972,128.682892 89.1445902,129.767733 Z" id="Path" fill="#18182D" fill-rule="nonzero"></path>
            <path d="M235.603507,115.688724 C235.161591,111.722497 231.67377,108.790776 227.659965,109.011704 C198.64557,110.601388 90.2526095,116.492633 90.7239576,115.757358 C91.6556017,114.304111 90.9901402,114.70045 90.9901402,114.70045 C90.9901402,114.70045 90.0395191,117.708807 89.2610475,120.994032 C89.3713947,120.983194 89.4538645,121.086309 89.0944875,121.714034 C89.0625139,121.855696 89.0310181,121.997389 89,122.139115 C93.341348,122.564904 197.450536,116.906185 225.796677,115.353142 C229.810482,115.132214 233.298302,118.063935 233.740218,122.030162 C234.555094,129.337365 235.559315,140.681992 234.948118,148 C235.183818,147.872897 235.383331,147.688719 235.52812,147.464578 C238.139015,142.651443 236.699502,125.516984 235.603507,115.688724 Z" id="Path" fill="#000000" fill-rule="nonzero" opacity="0.1"></path>
            <path d="M106.558515,93.3880841 C105.165978,92.9505255 103.40355,92.3854741 103.562391,91.4640549 C103.646782,90.9744914 104.285713,90.5925597 104.74866,90.1820957 C105.641045,89.3908937 105.881674,88.2764518 104.923128,87.5122962 C103.964582,86.7481405 101.65578,86.6459605 100.810103,87.454595 C100.375069,87.8705695 100.40128,88.3922599 100.176684,88.8620864 C99.4759873,90.3278156 96.6409392,90.9713853 94.2325587,91.5408293 C91.8241782,92.1102732 89.1295836,93.1697279 89.3559979,94.6860999 C89.6029806,96.3402564 93.3182998,97.8076882 91.8234066,99.2181446 C91.2813194,99.7296123 90.1409985,100.015002 89.8983501,100.600093 C89.7276227,101.011754 90.0705604,101.430394 90.4034604,101.806433 L92.7693654,104.478926 C93.710681,105.54222 94.6805865,106.699207 94.3653195,107.882791 C93.7404216,110.2288 88.6611651,111.126306 84.635269,110.862704 C83.1609778,110.766172 81.42818,110.634029 80.4150878,111.269206 C79.6343344,111.758711 79.6356629,112.52116 79.8951726,113.173773 C80.5630929,114.853438 82.6998125,116.308085 85.4343967,116.944792 C82.3694688,117.564776 81.1657751,120.177979 83.2818793,121.617875 C82.0709259,122.045022 80.761741,122.083498 79.5289121,121.728173 C78.4823084,122.716058 79.0975914,124.071775 80.4249879,124.935985 C81.7523843,125.800195 83.6328786,126.286415 85.4537306,126.748072 L83.7496804,128.381735 C84.9828598,129.369175 87.6458721,129.021104 89.441687,128.396986 C91.2375019,127.772868 93.186153,126.934862 95.1982003,127.261425 C97.085223,127.567693 98.5125231,128.858213 100.433916,128.637233 C101.922942,128.46598 102.631526,127.484861 103.095439,126.638022 L105.067523,123.038101 C107.874723,123.48841 110.826308,121.516208 109.698943,119.943459 C112.840261,120.289346 115.932255,118.197731 114.90103,116.424447 C116.573978,117.747404 117.751869,119.28427 118.328142,120.895997 C118.585629,121.616149 118.74236,122.377594 119.443715,122.98784 C120.37313,123.696737 121.572412,123.919187 122.685154,123.58908 C122.112333,124.728047 121.648356,126.056532 122.825517,127.022912 C124.002677,127.989291 127.399542,127.715222 127.249581,126.531057 C129.044671,127.321981 131.056246,128.065288 133.299686,128.124293 C135.543126,128.183298 137.998333,127.307923 138.202589,125.997077 C141.364182,127.066183 144.671708,127.612034 148.000813,127.614105 C148.284021,126.736869 150.261698,126.453203 151.74032,126.667596 C153.218943,126.88199 154.590519,127.3971 156.113703,127.397981 C157.636888,127.398862 159.274962,126.45894 158.495141,125.692026 C161.702539,126.379984 164.995026,126.55034 168.253678,126.196941 C171.3276,125.86236 174.240785,125.067124 177.353536,124.895623 C180.511121,124.698498 183.672617,125.210451 186.617255,126.395732 C187.637718,126.834426 188.906073,127.386616 190.027157,127.042494 C190.663059,126.847301 190.972167,126.425823 191.404152,126.089794 C193.263433,124.643534 197.065287,124.920867 199.998544,125.489475 C202.931802,126.058083 206.343834,126.742623 208.913917,125.73764 C209.883679,125.358429 210.598228,124.772457 211.629741,124.454123 C215.325039,123.313697 219.747986,126.23582 223.670134,125.395062 C224.947363,125.121261 225.983667,124.466199 227.336631,124.385397 C229.736446,124.242071 231.322329,125.909729 233.655649,126.268439 C236.076697,126.640615 238.701213,125.130201 238.110665,123.704541 C240.43763,123.757492 242.757784,123.426852 244.982462,122.725256 L243.883385,120.697017 C246.622116,120.651785 248.636847,118.638794 247.367922,117.215484 C250.114382,116.679188 252.286039,115.235869 252.850547,113.571637 C253.415054,111.907406 252.350472,110.086947 250.16288,108.975649 C248.871779,108.319768 247.176244,107.858537 246.438214,106.955352 C245.906728,106.304927 245.984188,105.548267 245.77748,104.837341 C245.325037,103.281274 243.364014,101.907344 240.830827,101.371623 C239.730616,101.138951 238.526711,101.050536 237.53055,100.691248 C236.53439,100.33196 235.814889,99.553678 236.389797,98.9566441 C236.69408,98.640662 237.280136,98.4545737 237.659074,98.1676641 C239.195611,97.0042992 236.561007,95.5318626 234.311854,94.8787409 L239.682853,94.6986239 L240.836151,89.3371757 C238.711116,91.1092248 233.198794,90.736515 231.817895,88.7274149 C233.543242,89.3078969 235.857288,88.5656351 236.700853,87.5096029 C237.544419,86.4535707 237.337081,85.2254464 237.111918,84.0668799 C237.068603,83.4814737 236.728758,82.9623465 236.216758,82.6994851 C235.691056,82.4427418 234.853508,82.3355638 234.681053,81.9474476 C234.505092,81.551427 235.185154,81.2012473 235.286047,80.7963143 C235.479728,80.0189709 233.73696,79.6763758 232.560111,79.3004465 C229.783427,78.4134691 228.438871,75.9209041 225.279632,76.0019299 C222.144923,76.0823262 221.268772,78.5362083 221.266625,80.3753558 C221.264478,82.2145033 220.20367,84.6739611 217.066486,84.6404171 C215.813741,84.6270194 214.721485,84.1651971 213.721245,83.7228986 L204.736235,79.7497758 C203.549058,79.1834769 202.31394,78.7294754 201.046255,78.3934225 C199.233944,77.9597886 197.231764,77.9085679 195.275809,77.8629952 L182.706749,77.5701417 C182.066566,77.518593 181.422474,77.5753772 180.800271,77.7382197 C180.14004,77.9643909 179.819201,78.4097095 179.421512,78.7925664 C177.671387,80.4774292 173.556477,81.1373237 170.586756,80.2093829 C169.799393,79.9633542 169.093855,79.6241851 168.259508,79.4387985 C165.631457,78.8548493 162.873721,79.9352174 160.143196,80.3255281 C155.667021,80.9653692 150.104625,79.8640773 146.877686,81.791646 C145.801861,82.4342766 145.231134,83.3129643 144.234165,83.9978965 C143.237196,84.6828287 141.438211,85.1472686 140.180856,84.6300911 C140.338795,85.8869954 140.482617,87.1985946 139.652732,88.3612475 C138.822847,89.5239004 136.69437,90.472765 134.603182,90.1795916 C133.49337,89.8787924 133.580861,88.9223777 134.105748,88.2750862 C134.630635,87.6277947 135.435671,86.9664383 135.173987,86.2663541 C134.914377,85.571832 133.726286,85.1678863 132.83794,84.6837437 C131.949594,84.1996011 131.357057,83.2820172 132.300593,82.835192 C131.664779,81.9973544 129.379504,82.0995138 128.374228,82.8021261 C127.368953,83.5047384 127.268546,84.4941985 127.15894,85.4089308 C127.049335,86.3236632 126.81043,87.325685 125.645659,87.9378536 C123.660682,88.9811176 119.849915,88.4398552 118.533475,89.7987745 C118.115292,90.230458 118.090617,90.7511991 117.851354,91.2273891 C116.78339,93.352889 112.172911,93.9033079 108.40428,94.0767553 C108.324862,94.5190094 108.307216,94.9705989 108.351871,95.4179498 C109.640955,94.8458779 107.492816,93.681653 106.558515,93.3880841 Z" id="Path" fill="#61AB43" fill-rule="nonzero"></path>
            <path d="M234.54849,89.8892463 C234.696726,90.5240057 234.833193,91.1968824 234.277916,91.7754665 C234.195495,91.8590146 234.102264,91.9343379 234,92 C234.746939,91.9791441 235.493886,91.9583001 236.24084,91.937468 C236.493908,90.9582976 236.746961,89.9791416 237,89 C236.420498,89.402209 235.458271,89.6021488 234.465328,89.6208211 C234.500744,89.7084297 234.52854,89.7981481 234.54849,89.8892463 Z" id="Path" fill="#000000" fill-rule="nonzero" opacity="0.1"></path>
            <path d="M237,95.9559353 C236.872052,95.6070804 235.759411,95.2530415 234.513899,95 C233.417466,95.2692582 232.170389,95.3258444 231,95.1594434 C231.909074,95.8263771 234.693672,96.1185162 237,95.9559353 Z" id="Path" fill="#000000" fill-rule="nonzero" opacity="0.1"></path>
            <path d="M239.842418,98 C239.810924,98.1561024 239.779463,98.3121812 239.748035,98.4682365 C237.832026,98.5367827 235.916014,98.6053565 234,98.6739577 C236.407063,99.4199138 239.226608,101.101702 237.582189,102.430461 C237.17665,102.758178 236.549459,102.970735 236.223812,103.331634 C235.608562,104.013544 236.378555,104.902503 237.444647,105.312853 C238.510739,105.723203 239.799122,105.824188 240.976586,106.089937 C243.687588,106.701836 245.786274,108.271089 246.27048,110.048402 C246.491702,110.860408 246.408809,111.724643 246.977603,112.467538 C247.767444,113.499138 249.581984,114.02596 250.963719,114.775079 C251.096824,114.84725 251.224887,114.922765 251.350136,115 C252.599234,114.226963 253.497154,113.229983 253.840056,112.151093 C254.444191,110.250233 253.304871,108.170957 250.963719,106.90166 C249.581984,106.152537 247.767444,105.625719 246.977603,104.594119 C246.408809,103.851224 246.491702,102.986989 246.27048,102.174982 C245.786274,100.397666 243.687595,98.8284127 240.976586,98.2165135 C240.606074,98.1328979 240.22449,98.0657948 239.842418,98 Z" id="Path" fill="#000000" fill-rule="nonzero" opacity="0.1"></path>
            <path d="M82.1829125,121 C82.5727442,120.339245 83.5686069,119.752427 85,119.52761 C83.6324191,119.30152 82.3439854,118.838888 81.2259038,118.172465 C80.6406428,118.186152 80.0562263,118.127981 79.4932173,118 C78.5172508,118.715221 79.0910005,119.696751 80.3287964,120.322435 C80.912533,120.603568 81.5345767,120.830887 82.1829125,121 L82.1829125,121 Z" id="Path" fill="#000000" fill-rule="nonzero" opacity="0.1"></path>
            <path d="M88.5452086,99.8268173 C89.3102451,99.524785 90.0940046,99.2784321 90.8909768,99.0894908 C93.2998561,98.5034261 96.1355313,97.8410489 96.8363884,96.3324985 C97.0610458,95.8489648 97.0348054,95.3120097 97.4699532,94.8839048 C98.315807,94.0516232 100.62512,94.1568094 101.583858,94.9432667 C102.542596,95.7297241 102.301946,96.8767571 101.409329,97.6910651 C100.946314,98.1135234 100.307232,98.5066158 100.222807,99.0104949 C100.063942,99.9588276 101.826726,100.540382 103.219565,100.990712 C103.875195,101.213321 104.489,101.554868 105.033388,102 C105.045008,101.899402 105.056591,101.799059 105.065762,101.69954 C108.835207,101.521015 113.446686,100.954535 114.514879,98.7669368 C114.754186,98.2768467 114.77886,97.7408792 115.197136,97.2965921 C116.513854,95.8979894 120.325447,96.4550423 122.310863,95.3813089 C123.475846,94.7512538 123.714825,93.7199779 123.824448,92.7784956 C123.93407,91.8370132 124.034485,90.818691 125.040016,90.0955535 C126.045487,89.372416 128.331271,89.2672688 128.967185,90.1295854 C128.02346,90.5894564 128.616137,91.5338559 129.504674,92.0321345 C130.39321,92.530413 131.581531,92.9461556 131.841204,93.6609771 C132.102967,94.381516 131.297742,95.0621853 130.772753,95.7284107 C130.247764,96.394636 130.160238,97.3789547 131.270264,97.6885304 C133.36194,97.9902716 135.490848,97.0136953 136.320908,95.8170642 C137.150967,94.620433 137.007145,93.2705434 136.849128,91.9769322 C138.106762,92.5092037 139.906129,92.0311999 140.903305,91.3262448 C141.90048,90.6212898 142.471327,89.7169582 143.547415,89.0555653 C146.775032,87.0716696 152.338622,88.2051402 156.815745,87.5466219 C159.546858,87.1448914 162.305188,86.0329523 164.933799,86.6339779 C165.768294,86.824766 166.473996,87.1738573 167.261517,87.427066 C170.231908,88.3821286 174.347668,87.7029462 176.098182,85.9688607 C176.495962,85.5748372 176.816857,85.1165062 177.477216,84.8837315 C178.099555,84.7161245 178.743791,84.6576802 179.384115,84.7107399 C183.574708,84.8112012 187.765301,84.9116695 191.955894,85.0121449 C193.91223,85.0590489 195.914846,85.1117623 197.727561,85.5580744 C198.995516,85.903947 200.230898,86.3712073 201.418332,86.9540396 C204.413979,88.3170917 207.409628,89.6801579 210.405278,91.0432383 C211.405719,91.4984504 212.498192,91.9737779 213.751225,91.9875564 C216.889094,92.0220803 217.950106,89.4907753 217.95226,87.5978909 C217.954415,85.7050066 218.830743,83.1794544 221.966103,83.0967059 C225.126025,83.0133273 226.470903,85.5787031 229.248161,86.4915843 C230.425255,86.8784955 232.168423,87.2310987 231.974674,88.0311574 C231.884765,88.4024387 231.336669,88.7290993 231.34225,89.0841417 C232.124265,88.889897 232.835745,88.4596082 233.389807,87.8458213 C234.23354,86.7589396 234.02618,85.4949316 233.800939,84.3025309 C233.757619,83.7000188 233.417696,83.165723 232.905577,82.8951911 C232.379762,82.630944 231.542046,82.5206599 231.369537,82.121174 C231.193572,81.7135951 231.873772,81.3531788 231.97468,80.9364273 C232.16843,80.1363685 230.425261,79.7837689 229.248168,79.3968577 C226.470909,78.4839765 225.126042,75.9185901 221.96611,76.0019864 C218.830754,76.0847242 217.954421,78.6102906 217.952267,80.5031643 C217.950113,82.3960381 216.889101,84.9273431 213.751232,84.8928262 C212.498199,84.8790478 211.405725,84.4037203 210.405285,83.9485117 C207.409635,82.5854384 204.413986,81.222371 201.418338,79.8593095 C200.230902,79.276481 198.995521,78.8092185 197.727568,78.4633372 C195.914853,78.0170322 193.912237,77.9643223 191.9559,77.9174182 C187.765307,77.8169429 183.574715,77.7164734 179.384122,77.6160098 C178.743798,77.5629548 178.099563,77.6213966 177.477223,77.7889942 C176.81685,78.021776 176.495969,78.4800965 176.098189,78.8741341 C174.347675,80.6082125 170.231914,81.2873984 167.261524,80.3323394 C166.473976,80.0791342 165.768304,79.7300358 164.933805,79.5392478 C162.305195,78.9382257 159.546865,80.0501613 156.815752,80.4518917 C152.338629,81.11041 146.775038,79.9769395 143.547422,81.9608387 C142.471333,82.6222281 141.90049,83.526588 140.903311,84.2315182 C139.906132,84.9364485 138.106765,85.4144701 136.849135,84.8822056 C137.007151,86.1758168 137.151004,87.5257206 136.320914,88.722334 C135.490825,89.9189475 133.361946,90.895545 131.27027,90.5938038 C130.160254,90.2842281 130.247767,89.2998633 130.77276,88.6336841 C131.297752,87.9675048 132.102974,87.2867894 131.841211,86.5662505 C131.581538,85.8514396 130.393187,85.4356935 129.50468,84.9374079 C128.616174,84.4391222 128.023467,83.4947369 128.967192,83.0348623 C128.331278,82.1725457 126.045494,82.277693 125.040023,83.0008304 C124.034492,83.7239679 123.934107,84.7423291 123.824455,85.6837725 C123.714802,86.6252159 123.475853,87.6565272 122.31087,88.2865823 C120.325454,89.3603228 116.513878,88.8032664 115.197143,90.2018655 C114.778867,90.6461597 114.754193,91.1821236 114.514885,91.6722137 C113.446693,93.8598085 108.835213,94.4262889 105.065769,94.6048137 C105.056598,94.7043321 105.045015,94.8046753 105.033395,94.9052769 C104.489008,94.4601424 103.875203,94.1185941 103.219572,93.8959857 C101.826733,93.4456732 100.063948,92.864101 100.222813,91.9157719 C100.307239,91.4119033 100.94632,91.018811 101.409336,90.5963421 C102.301956,89.7820305 102.542603,88.6350399 101.583865,87.8485437 C100.625127,87.0620474 98.3158171,86.9569001 97.4699599,87.7891782 C97.0348121,88.2172866 97.0610525,88.7542347 96.8363951,89.2377754 C96.135538,90.7463259 93.2998628,91.4086995 90.8909835,91.9947642 C88.4821042,92.5808289 85.7869192,93.6712507 86.0133551,95.2319447 C86.2564916,96.9072452 89.8551619,98.3964273 88.5452086,99.8268173 Z" id="Path" fill="#000000" fill-rule="nonzero" opacity="0.1"></path>
            <path d="M81.5918523,114.33409 C80.8252794,114.431551 80.0928322,114.629188 79.4339997,114.916346 C79.8516345,114.928967 80.2674557,114.947805 80.6668464,114.965396 C85.3269503,115.170514 91.2063828,114.472106 91.9297459,112.646522 C92.2946913,111.72551 91.1719764,110.82518 90.0823825,109.997747 C89.64439,109.665164 89.2064246,109.332582 88.7684865,109 C86.488456,109.534023 83.3729308,109.720346 80.6668464,109.601232 C78.9603205,109.526106 76.9544816,109.423274 75.7817996,109.917546 C74.878059,110.298464 74.8796084,110.891762 75.1800087,111.399613 C75.9531136,112.70668 78.4264727,113.83864 81.5918523,114.33409 Z" id="Path" fill="#000000" fill-rule="nonzero" opacity="0.1"></path>
            <ellipse id="Oval" fill="#F4406F" fill-rule="nonzero" cx="164.5" cy="79.5" rx="39.5" ry="26.5"></ellipse>
            <path d="M154.617862,78.7763322 C154.617862,78.7763322 134.068755,80.8863421 140.11261,72.1448704 C146.156464,63.4033987 153.711282,60.3890962 157.337597,62.8005345 C160.963912,65.2119727 162.474874,71.8434383 161.870489,71.8434383 C161.266103,71.8434383 152.502514,66.7191258 149.480585,70.6377172 C146.458655,74.5563086 154.617862,78.7763322 154.617862,78.7763322 Z" id="Path" fill="#FFFFFF" fill-rule="nonzero" opacity="0.2"></path>
            <path d="M166.898516,72 C166.898516,72 184.057461,84.8397856 173.647989,87.7957167 C163.238517,90.7516479 155.451825,87.8869356 154.262091,83.3132818 C153.072356,78.739628 156.292288,72.1693208 156.755978,72.5984082 C157.219668,73.0274955 160.559326,83.4974185 165.465479,82.3942889 C170.371631,81.2911594 166.898516,72 166.898516,72 Z" id="Path" fill="#FFFFFF" fill-rule="nonzero" opacity="0.2"></path>
            <path d="M171,70.5833114 C171,70.5833114 172.361215,50.2784803 180.1205,57.587073 C187.879785,64.8956657 189.628587,72.7290993 186.591291,75.8541368 C183.553996,78.9791744 176.634898,79.3551933 176.737275,78.7682143 C176.839651,78.1812354 183.47311,70.5133015 180.047768,66.9334292 C176.622426,63.3535569 171,70.5833114 171,70.5833114 Z" id="Path" fill="#FFFFFF" fill-rule="nonzero" opacity="0.2"></path>
            <ellipse id="Oval" fill="#F4406F" fill-rule="nonzero" cx="114.5" cy="76.5" rx="39.5" ry="26.5"></ellipse>
            <path d="M104.617862,75.7763322 C104.617862,75.7763322 84.0687549,77.8863423 90.1126096,69.1448697 C96.1564643,60.4033971 103.711286,57.3890943 107.337597,59.8005365 C110.963908,62.2119788 112.474875,68.8434375 111.870489,68.8434375 C111.266103,68.8434375 102.502514,63.7191283 99.4805846,67.6377201 C96.4586553,71.556312 104.617862,75.7763322 104.617862,75.7763322 Z" id="Path" fill="#FFFFFF" fill-rule="nonzero" opacity="0.2"></path>
            <path d="M121.898519,72 C121.898519,72 139.057458,84.8397906 128.647991,87.7957178 C118.238524,90.7516449 110.451825,87.8869407 109.262091,83.3132825 C108.072356,78.7396243 111.292287,72.1693208 111.755981,72.5984082 C112.219675,73.0274956 115.559325,83.4974234 120.465481,82.3942937 C125.371637,81.2911641 121.898519,72 121.898519,72 Z" id="Path" fill="#FFFFFF" fill-rule="nonzero" opacity="0.2"></path>
            <path d="M122,67.5833096 C122,67.5833096 123.361215,47.278483 131.1205,54.5870717 C138.879785,61.8956604 140.628587,69.7290937 137.591291,72.8541348 C134.553996,75.979176 127.634902,76.3551912 127.737294,75.768216 C127.839686,75.1812408 134.473125,67.5132997 131.047783,63.9334276 C127.622442,60.3535554 122,67.5833096 122,67.5833096 Z" id="Path" fill="#FFFFFF" fill-rule="nonzero" opacity="0.2"></path>
            <path d="M135.609375,53 C144.355283,57.9415046 149.914034,65.341036 149.914034,73.6127335 C149.914034,88.4903489 131.93724,100.551061 109.761706,100.551061 C102.163282,100.551061 95.0582023,99.1346044 89,96.6744055 C95.9846372,100.62082 105.00133,103 114.847669,103 C137.023206,103 155,90.9392875 155,76.0616721 C155,66.2818604 147.23161,57.7197062 135.609375,53 Z" id="Path" fill="#000000" fill-rule="nonzero" opacity="0.1"></path>
            <path d="M187.609375,56 C196.355283,60.941508 201.914037,68.341036 201.914037,76.6127335 C201.914037,91.4903489 183.937243,103.551061 161.761706,103.551061 C154.163282,103.551061 147.058202,102.134604 141,99.6744055 C147.984637,103.62082 157.001334,106 166.847672,106 C189.023193,106 207,93.9392875 207,79.0616721 C207,69.2818604 199.231626,60.7197097 187.609375,56 Z" id="Path" fill="#000000" fill-rule="nonzero" opacity="0.1"></path>
            <path d="M92.6058841,67.6113676 C92.6058841,67.6113676 126.303466,30.3290354 208.849486,45.7282595 C274.102737,57.9014638 220.518768,78.853553 195.204123,87.0979159 C187.85964,89.4888717 180.251314,90.9055875 172.56171,91.314069 C144.003072,92.8350756 72.1693542,94.1947511 92.6058841,67.6113676 Z" id="Path" fill="#714B4F" fill-rule="nonzero"></path>
            <path d="M195.204912,79.7544293 C187.860226,82.0054509 180.251689,83.3392474 172.561872,83.7238136 C149.42572,84.8838783 97.8911163,85.9434277 90.0176163,72.9984206 C80.0755651,93.9219684 145.601135,92.7061406 172.561872,91.3543036 C180.251686,90.9697355 187.86022,89.6359379 195.204902,87.384916 C213.760625,81.6956303 247.50275,69.5786123 238.502541,59 C232.442664,67.3018624 209.387988,75.4058164 195.204912,79.7544293 Z" id="Path" fill="#000000" fill-rule="nonzero" opacity="0.1"></path>
            <line x1="168" y1="50" x2="178" y2="70" id="Path" stroke="#000000" stroke-width="2" opacity="0.1"></line>
            <line x1="139" y1="56" x2="145" y2="73" id="Path" stroke="#000000" stroke-width="2" opacity="0.1"></line>
            <line x1="181" y1="50" x2="191" y2="70" id="Path" stroke="#000000" stroke-width="2" opacity="0.1"></line>
            <line x1="139" y1="72" x2="221" y2="62" id="Path" stroke="#000000" stroke-width="2" opacity="0.1"></line>
            <line x1="217" y1="53" x2="220" y2="59" id="Path" stroke="#000000" stroke-width="2" opacity="0.1"></line>
            <line x1="122" y1="62" x2="125" y2="68" id="Path" stroke="#000000" stroke-width="2" opacity="0.1"></line>
            <path d="M135.706526,37.4404266 C135.706526,37.4404266 210.914903,37.0976005 211.604888,36.4119516 C212.294873,35.7263026 228.164529,35.3630658 231.269461,39.8197855 C234.374393,44.2765053 235.409372,46.3334488 231.269461,47.0191011 C227.12955,47.7047533 90.8574949,117.983772 90.8574949,117.983772 C90.8574949,117.983772 83.2676578,118.669421 87.062578,111.127282 C90.8574982,103.585144 135.706526,37.4404266 135.706526,37.4404266 Z" id="Path" fill="#F6C964" fill-rule="nonzero"></path>
            <path d="M168,66.9038465 C168,70.4246618 154.120826,79 137,79 C119.879174,79 106,70.4246618 106,66.9038465 C106,63.3830312 119.879174,62 137.00001,62 C154.120846,62 168,63.3830312 168,66.9038465 Z" id="Path" fill="#61AB43" fill-rule="nonzero"></path>
            <ellipse id="Oval" fill="#61AB43" fill-rule="nonzero" cx="137" cy="67" rx="31" ry="5"></ellipse>
            <path d="M204,63.9038465 C204,67.4246618 190.120826,76 173,76 C155.879174,76 142,67.4246618 142,63.9038465 C142,60.3830312 155.879171,59 173,59 C190.120829,59 204,60.3830312 204,63.9038465 Z" id="Path" fill="#61AB43" fill-rule="nonzero"></path>
            <ellipse id="Oval" fill="#61AB43" fill-rule="nonzero" cx="173" cy="64" rx="31" ry="5"></ellipse>
            <path d="M240,60.9038477 C240,64.4246597 226.120826,73 209,73 C191.879174,73 178,64.4246597 178,60.9038477 C178,57.3830356 191.879171,56 209,56 C226.120829,56 240,57.3830315 240,60.9038477 Z" id="Path" fill="#61AB43" fill-rule="nonzero"></path>
            <ellipse id="Oval" fill="#61AB43" fill-rule="nonzero" cx="209" cy="58" rx="31" ry="5"></ellipse>
            <path d="M96.9368899,58.0658535 C96.9368899,58.0658535 84.4198681,56.0886972 90.8239274,46.2029123 C97.2279867,36.3171275 99.3819847,25.2353038 102.176575,22.7594777 C105.300904,19.9915253 169.787354,-28.5387939 220.025432,25.16271 C225.347774,30.919807 229.674295,37.4751277 232.837032,44.5741865 C233.44473,45.9163171 234.11474,47.1208778 234.76969,47.7563763 C236.807344,49.7335327 238.553905,55.382554 234.76969,58.207063 C230.985475,61.031572 119.496642,72.0471765 96.9368899,58.0658535 Z" id="Path" fill="#18182D" fill-rule="nonzero"></path>
            <path d="M154,19.5 C153.558326,19.8071281 153.037616,19.9806981 152.5,20 C151.671573,20 151,19.7761423 151,19.5 C151,19.2238596 151.671573,19 152.5,19 C153.037616,19.0193022 153.558327,19.1928728 154,19.5 Z" id="Path" fill="#F2F2F2" fill-rule="nonzero"></path>
            <path d="M131,10.5 C130.558326,10.8071277 130.037616,10.980698 129.5,11 C128.671573,11 128,10.7761418 128,10.5 C128,10.2238582 128.671573,10 129.5,10 C130.037616,10.019302 130.558326,10.1928723 131,10.5 L131,10.5 Z" id="Path" fill="#F2F2F2" fill-rule="nonzero"></path>
            <path d="M190,22.6858951 C189.463721,23.078806 188.890288,23.1036264 188.348126,22.7573948 C187.52197,22.1547128 186.922078,21.1455536 187.008232,20.5033798 C187.094386,19.861206 187.833952,19.8291936 188.660106,20.4318756 C189.190224,20.867883 189.655355,21.6503446 190,22.6858951 L190,22.6858951 Z" id="Path" fill="#F2F2F2" fill-rule="nonzero"></path>
            <path d="M151,5.68589369 C150.463721,6.07880468 149.890289,6.1036267 149.348126,5.75739793 C148.52197,5.15471151 147.922078,4.14555266 148.008232,3.50337904 C148.094386,2.86120542 148.833952,2.82919298 149.660106,3.4318794 C150.190224,3.8678841 150.655356,4.65034401 151,5.68589369 L151,5.68589369 Z" id="Path" fill="#F2F2F2" fill-rule="nonzero"></path>
            <path d="M190,8.68589509 C189.463721,9.07880597 188.890288,9.10362641 188.348126,8.75739475 C187.52197,8.15471276 186.922079,7.14555363 187.008232,6.50337983 C187.094384,5.86120603 187.83395,5.82919358 188.660106,6.43187557 C189.190224,6.86788305 189.655355,7.65034456 190,8.68589509 L190,8.68589509 Z" id="Path" fill="#F2F2F2" fill-rule="nonzero"></path>
            <path d="M184,10.5 C183.558326,10.8071276 183.037615,10.9806979 182.5,11 C181.671572,11 181,10.7761418 181,10.5 C181,10.2238582 181.671572,10 182.5,10 C183.037615,10.0193021 183.558326,10.1928724 184,10.5 Z" id="Path" fill="#F2F2F2" fill-rule="nonzero"></path>
            <path d="M157,3.5 C156.558327,3.80712773 156.037616,3.98069804 155.5,4 C154.671574,4 154,3.77614372 154,3.5 C154,3.22385628 154.671574,3 155.5,3 C156.037616,3.01930196 156.558327,3.19287227 157,3.5 L157,3.5 Z" id="Path" fill="#F2F2F2" fill-rule="nonzero"></path>
            <path d="M178,3.5 C177.558327,3.80712773 177.037616,3.98069804 176.5,4 C175.671574,4 175,3.77614372 175,3.5 C175,3.22385628 175.671574,3 176.5,3 C177.037616,3.01930196 177.558327,3.19287227 178,3.5 L178,3.5 Z" id="Path" fill="#F2F2F2" fill-rule="nonzero"></path>
            <path d="M171,16.5 C170.558326,16.8071277 170.037616,16.980698 169.5,17 C168.671573,17 168,16.7761437 168,16.5 C168,16.2238563 168.671573,16 169.5,16 C170.037616,16.019302 170.558326,16.1928723 171,16.5 L171,16.5 Z" id="Path" fill="#F2F2F2" fill-rule="nonzero"></path>
            <path d="M151,13 C151.16407,12.2398717 151.522116,11.5480777 152.031416,11.0071641 C152.842184,10.2059006 153.694917,9.79901398 153.936048,10.0983603 C154.177179,10.3977065 153.715401,11.28993 152.904632,12.0911962 C152.361622,12.5902601 151.700447,12.9057427 151,13 Z" id="Path" fill="#F2F2F2" fill-rule="nonzero"></path>
            <path d="M142,9 C142.164069,8.23987129 142.522115,7.54807719 143.031416,7.00716518 C143.842182,6.20589837 144.694917,5.79901414 144.936048,6.09836065 C145.177179,6.39770716 144.715401,7.2899314 143.904632,8.09119547 C143.361623,8.59026096 142.700447,8.90574399 142,9 Z" id="Path" fill="#F2F2F2" fill-rule="nonzero"></path>
            <path d="M115,26 C115.16407,25.2398718 115.522115,24.5480781 116.031415,24.0071652 C116.842182,23.2058984 117.694914,22.7990141 117.936047,23.0983606 C118.17718,23.3977072 117.715398,24.2899287 116.904632,25.0911955 C116.361623,25.5902609 115.700447,25.9057439 115,26 Z" id="Path" fill="#F2F2F2" fill-rule="nonzero"></path>
            <path d="M168,9 C168.164068,8.23987129 168.522115,7.54807719 169.031415,7.00716518 C169.842181,6.20589837 170.694913,5.79901414 170.936047,6.09836065 C171.17718,6.39770716 170.7154,7.2899314 169.904631,8.09119547 C169.361622,8.59026056 168.700447,8.90574354 168,9 Z" id="Path" fill="#F2F2F2" fill-rule="nonzero"></path>
            <path d="M158,20 C158.164069,19.2398713 158.522115,18.5480772 159.031416,18.0071652 C159.842184,17.2058984 160.694917,16.7990141 160.936048,17.0983606 C161.177179,17.3977072 160.715401,18.2899314 159.904632,19.0911955 C159.361623,19.590261 158.700447,19.905744 158,20 L158,20 Z" id="Path" fill="#F2F2F2" fill-rule="nonzero"></path>
        </g>
    </g>
</svg>