<?xml version="1.0" encoding="UTF-8"?>
<svg width="300px" height="300px" viewBox="0 0 300 300" version="1.1" xmlns="http://www.w3.org/2000/svg" xmlns:xlink="http://www.w3.org/1999/xlink">
    <g id="Artboard" stroke="none" stroke-width="1" fill="none" fill-rule="evenodd">
        <g id="undraw_my_location_f9pr" transform="translate(13.000000, 6.000000)" fill-rule="nonzero">
            <path d="M196,63.9244498 L194.512398,63.9244498 L194.512398,23.4345042 C194.512404,17.2192743 192.027406,11.2586032 187.604079,6.86377801 C183.180752,2.46895282 177.181433,0 170.925912,0 L84.5864515,0 C78.3309363,0 72.3316258,2.4689645 67.9083057,6.86378893 C63.4849857,11.2586134 61,17.2192798 61,23.4345042 L61,245.565496 C61,251.780723 63.4849877,257.741392 67.9083111,262.136216 C72.3316345,266.531041 78.3309488,269 84.5864667,269 L170.925924,269 C177.181444,269 183.180763,266.531047 187.60409,262.136222 C192.027418,257.741397 194.512415,251.780726 194.512409,245.565496 L194.512409,92.7458789 L196,92.7458789 L196,63.9244498 Z" id="Path" fill="#3F3D56"></path>
            <rect id="Rectangle" fill="#3F3D56" x="0" y="257" width="271" height="2"></rect>
            <path d="M190,22.5143994 L190,244.485601 C190.004134,249.131977 188.164599,253.589244 184.88694,256.874729 C181.609282,260.160215 177.162636,262.004143 172.527329,262 L86.4726682,262 C81.8376283,262.00327 77.3914883,260.159061 74.1140193,256.873765 C70.8365504,253.588468 68.9967355,249.13171 69,244.485601 L69,22.5143994 C68.9967355,17.86829 70.8365504,13.4115317 74.1140193,10.1262354 C77.3914883,6.84093914 81.8376283,4.99673036 86.4726682,5 L96.9117646,5 C95.867766,7.56562389 96.1664984,10.4838586 97.7085395,12.7834831 C99.2505806,15.0831075 101.833541,16.4623007 104.597776,16.4620484 L153.663037,16.4620484 C156.427272,16.4623007 159.010232,15.0831075 160.552273,12.7834831 C162.094314,10.4838586 162.393047,7.56562389 161.349048,5 L172.527329,5 C177.162642,4.99583746 181.609299,6.83975949 184.886962,10.1252495 C188.164624,13.4107395 190.004153,17.8680168 190,22.5143994 L190,22.5143994 Z" id="Path" fill="#000000" opacity="0.2"></path>
            <path d="M27.3422495,261 L26.9063628,260.841566 C26.8105786,260.806571 17.2773714,257.265252 12.8116086,249.235425 C8.34564269,241.205224 10.532419,231.536833 10.5550248,231.440314 L10.657949,231 L11.0936407,231.158438 C11.1894209,231.193429 20.7224291,234.734752 25.188395,242.764579 C29.6543568,250.79478 27.4675805,260.463167 27.4449747,260.55969 L27.3422495,261 Z M13.5267171,248.86166 C17.3023572,255.650913 24.8357956,259.131102 26.7445401,259.925586 C27.1074473,257.94207 28.2455556,249.921099 24.4732824,243.138383 C20.7014113,236.356435 13.1649958,232.870863 11.2554594,232.074458 C10.8923532,234.059108 9.75464293,242.07931 13.5267171,248.86166 Z" id="Shape" fill="#575A89"></path>
            <path d="M17.2901781,246.35895 C25.022164,251.15733 28,260.688236 28,260.688236 C28,260.688236 18.4418078,262.43943 10.7098219,257.64105 C2.97783602,252.84267 0,243.311764 0,243.311764 C0,243.311764 9.55819616,241.56057 17.2901781,246.35895 Z" id="Path" fill="#8900FE"></path>
            <path d="M87,5 L87,262 L83.628,262 C82.7460471,262 81.8660038,261.896617 81,261.68621 L81,5.31379043 C81.8660023,5.10337035 82.7460466,5 83.628,5 L87,5 Z" id="Path" fill="#3F3D56"></path>
            <rect id="Rectangle" fill="#3F3D56" x="125" y="19" width="6" height="244"></rect>
            <path d="M177,6.08119647 L177,260.918803 C175.457628,261.636566 173.826187,262.002669 172.182,262 L171,262 L171,5 L172.182,5 C173.826186,4.99734177 175.457626,5.36344463 177,6.08119647 Z" id="Path" fill="#3F3D56"></path>
            <rect id="Rectangle" fill="#3F3D56" x="69" y="49" width="121" height="6"></rect>
            <rect id="Rectangle" fill="#3F3D56" x="69" y="135" width="121" height="6"></rect>
            <rect id="Rectangle" fill="#3F3D56" x="124" y="178" width="61" height="6"></rect>
            <rect id="Rectangle" fill="#3F3D56" x="124" y="81" width="64" height="6"></rect>
            <polygon id="Path" fill="#3F3D56" points="130 56.4727008 129.115611 56.9734755 124.491626 59.5894631 90.9458193 78.577796 83.3217723 82.8941756 69 91 69 82.3672409 83.3217723 74.2614165 90.9458193 69.948774 113.867517 56.9734755 124.491626 50.9604412 126.187977 50"></polygon>
            <rect id="Rectangle" fill="#3F3D56" x="69" y="217" width="121" height="6"></rect>
            <path d="M216,81.484375 C216,105.50013 171.5,159 171.5,159 C171.5,159 127,105.50013 127,81.484375 C127,57.4686178 146.923329,38 171.5,38 C196.076671,38 216,57.4686178 216,81.484375 Z" id="Path" fill="#8900FE"></path>
            <ellipse id="Oval" fill="#000000" opacity="0.2" cx="172.5" cy="79" rx="26.5" ry="26"></ellipse>
            <path d="M217.999985,46.6460825 C217.999985,46.6460825 210.999987,44.2557343 206.5,53.8171383 C202,63.3785424 195,73.8960901 195,73.8960901 L199,74.8522301 C199,74.8522301 200,68.1592462 202.500015,67.2031062 L201.500012,75.8083702 C201.500012,75.8083702 231.5,85.847846 245,74.8522301 L244.5,71.5057234 C244.5,71.5057234 246.5,71.9837915 246.5,74.8522301 L248,73.4180182 C248,73.4180182 246.5,70.5495981 242,66.7250343 C239.046398,64.2147579 238.031413,59.4389882 237.68262,56.4530996 C237.42131,53.9598457 236.378014,51.600309 234.689561,49.6839432 C231.699056,46.3701606 226.249982,42.8480826 217.999985,46.6460825 Z" id="Path" fill="#2F2E41"></path>
            <path d="M259.271209,102 C259.271209,102 271.88996,113.044659 273.745659,119.519114 C275.601358,125.99357 266.694004,126.75527 266.694004,126.75527 L247.394738,128.659522 C247.394738,128.659522 247.023598,137.799929 243.68334,138.94248 C240.343083,140.085031 243.00522,123.827484 243.00522,123.827484 L261.869187,118.376563 L253.332973,109.236156 L259.271209,102 Z" id="Path" fill="#FBBEBE"></path>
            <path d="M200.013716,115 L198.561665,135.052055 L190.575381,169.102715 C190.575381,169.102715 183.315123,184.614682 189.486342,184.993023 C195.657562,185.371363 195.294549,170.237737 195.294549,170.237737 L206.910961,138.07878 L208,116.135022 L200.013716,115 Z" id="Path" fill="#FBBEBE"></path>
            <polygon id="Path" fill="#FBBEBE" points="206 258.214286 206 274 214 271.571429 211.666667 257"></polygon>
            <polygon id="Path" fill="#FBBEBE" points="254 258.214286 254 274 262 271.571429 259.666667 257"></polygon>
            <circle id="Oval" fill="#FBBEBE" cx="220.5" cy="65.5" r="12.5"></circle>
            <path d="M214.883211,72 C214.883211,72 219.381541,87.5556267 212.259185,91.534973 C205.13683,95.5143194 230.252505,98.4083894 237,86.4703504 C237,86.4703504 225.004454,82.491004 228.378201,72 L214.883211,72 Z" id="Path" fill="#FBBEBE"></path>
            <path d="M204.666667,92.7419355 L202.666667,92 C202.666667,92 198.666667,93.8548387 198.666667,97.1935484 C198.666667,100.532258 198,113.887097 198,113.887097 L207,115 L204.666667,92.7419355 Z" id="Path" fill="#575A89"></path>
            <path d="M208.167598,134.006709 C208.167598,134.006709 196,149.955451 196,169.29821 C196,188.640968 198.949721,258.805877 198.949721,258.805877 C198.949721,258.805877 210.011173,264.115654 216.648045,257.668068 L222.547486,178.021415 L245.776536,260.322956 C245.776536,260.322956 256.837989,262.598575 262,258.805877 L252.044693,205.708108 C252.044693,205.708108 251.675978,142.749325 240.614525,138.198088 C229.553073,133.646851 208.167598,134.006709 208.167598,134.006709 Z" id="Path" fill-opacity="0.85" fill="#000000"></path>
            <path d="M214.484663,269.748391 C214.484663,269.748391 204.045117,264.82212 203.242075,271.507774 C202.439033,278.193427 202.037512,282.415946 202.037512,282.415946 C202.037512,282.415946 200.832949,290.509105 212.075537,288.749723 C223.318125,286.99034 219.302915,282.064069 219.302915,282.064069 C219.302915,282.064069 215.287705,276.434045 215.287705,275.026539 C215.287705,273.619033 214.484663,269.748391 214.484663,269.748391 Z" id="Path" fill="#2F2E41"></path>
            <path d="M254.138338,268.65627 C254.138338,268.65627 263.758317,262.490128 265.697012,268.947299 C267.635707,275.40447 268.754314,279.496168 268.754314,279.496168 C268.754314,279.496168 271.333977,287.283066 259.775304,286.992041 C248.21663,286.701016 251.402236,281.354988 251.402236,281.354988 C251.402236,281.354988 254.468434,275.318469 254.229614,273.937483 C253.990795,272.556497 254.138338,268.65627 254.138338,268.65627 Z" id="Path" fill="#2F2E41"></path>
            <path d="M243.172414,88.6088131 C243.172414,88.6088131 247.87931,85.9965079 252.586207,91.5943047 L262,102.789898 L254.758621,111 L241,102.416712 L243.172414,88.6088131 Z" id="Path" fill="#575A89"></path>
            <path d="M208.447026,67 C212.831582,63.773444 216.380794,60.0571202 218.728591,55.6363642 C218.728591,55.6363642 226.775029,64.7272728 231.692308,65.1818198 C236.609587,65.6363668 232.13933,54.2727272 232.13933,54.2727272 L223.19884,52 L214.705372,52.9090901 L208,57.4545444 L208.447026,67 Z" id="Path" fill="#2F2E41"></path>
            <path d="M233.923088,84 C233.923088,84 228.540654,92.5102 212.385731,88.4474231 L203.218423,90.9721308 L202,91.3076923 C202,91.3076923 203.153846,114.384615 206.230769,118.615385 C209.307692,122.846154 208.538462,125.153846 207.769231,125.538462 C207,125.923077 205.076923,125.153846 206.230769,127.076923 C207.384615,129 208.923077,127.846154 207.384615,129 C205.846154,130.153846 205.076923,134.384615 205.076923,134.384615 L241.230769,139 C241.230769,139 240.076923,124 243.153846,116.307692 C246.230769,108.615385 247,105.538462 247,105.538462 L244.692308,86.3076923 L233.923088,84 Z" id="Path" fill="#575A89"></path>
            <circle id="Oval" fill="#8900FE" cx="175.5" cy="177.5" r="11.5"></circle>
        </g>
    </g>
</svg>