<?xml version="1.0" encoding="UTF-8"?>
<svg width="300px" height="300px" viewBox="0 0 300 300" version="1.1" xmlns="http://www.w3.org/2000/svg" xmlns:xlink="http://www.w3.org/1999/xlink">
    <g id="Artboard-Copy" stroke="none" stroke-width="1" fill="none" fill-rule="evenodd">
        <g id="undraw_takeout_boxes_ap54" transform="translate(0.000000, 41.000000)" fill-rule="nonzero">
            <polygon id="Path" fill="#6C63FF" points="144 63.2699924 143.987281 63.3544779 143.952548 63.5987091 140.368182 89.1279114 118.420733 97.1205357 118.076826 96.9573912 105.789112 91.1652756 99.4353876 66.9684201 99 65.3073565 99.1325731 65.2568594 126.315436 55.1205357 143.983856 63.2602814"></polygon>
            <polygon id="Path" fill="#6C63FF" points="118 97.1205357 105.76177 91.2737032 99 65.1715099 99.1320392 65.1205357 116.770233 72.606383"></polygon>
            <polygon id="Path" fill="#000000" opacity="0.2" points="118 96.8278887 108.837393 78.8798494 110.01425 73.7916141 104.471894 67.1205357 104 67.5303396 109.339499 73.9573004 105.35094 91.2053396 105.953756 91.3514181 108.619669 79.8215161 117.450896 97.1205357"></polygon>
            <polygon id="Path" fill="#3F3D56" points="144 61.6467485 143.952548 61.6624028 116.842086 71.1205357 99.4353876 65.0574293 99 63.3838867 99.1325731 63.3330102 126.315436 53.1205357 143.983856 61.3214326 143.987281 61.4163368"></polygon>
            <polygon id="Path" fill="#6C63FF" points="117.463592 72.1205357 112 68.0563054 113.248738 63.5401313 128.858447 58.1205357 139.473204 58.7226612 143.688057 62.1852324 144 63.0881874"></polygon>
            <polygon id="Path" fill="#6C63FF" points="99 64.1205357 111.577048 63.6556091 118.390397 61.4063048 129.013164 57.7708572 131 54.9836966 126.042775 54.1205357"></polygon>
            <polygon id="Rectangle" fill="#CCCCCC" transform="translate(121.454098, 60.699554) rotate(-19.337590) translate(-121.454098, -60.699554) " points="117.975706 60.3820842 124.932772 60.3790015 124.93249 61.0170245 117.975424 61.0201072"></polygon>
            <polygon id="Path" fill="#9F616A" points="38.0732549 22.1205357 35 37.4143935 49.3411988 48.1205357 56 28.2379807"></polygon>
            <circle id="Oval" fill="#9F616A" cx="48.5" cy="21.6205357" r="13.5"></circle>
            <path d="M19.677513,127.070796 C19.7423794,131.540447 39.6740453,181.284975 36.9066252,187.762341 C32.5442718,192.11757 23.1608008,215.298434 19.1518296,221.482362 C18.6267986,221.482046 16,229.178616 16,229.178616 C16,229.178616 22.3043116,238.927614 29.1339778,234.822766 C37.7216183,215.096075 59.2285238,204.0938 59.6085383,178.382988 C60.6466092,186.504959 63.7109504,238.6387 63.7109504,238.6387 C63.7109504,238.6387 63.1231973,238.882447 76.3545001,240.120536 C78.4086622,209.862656 86.8032104,158.384775 68.0097927,126.044141 C62.2315944,123.479063 19.677513,127.070796 19.677513,127.070796 Z" id="Path" fill="#2F2E41"></path>
            <path d="M62.5254986,238.120536 C61.9459769,239.247037 57.7899351,249.645193 61.5719486,250.687795 C65.9334886,251.89015 70.1614146,250.205448 70.1614146,250.205448 C70.1614146,250.205448 77.7964955,252.617182 82.4690982,249.552052 C84.6498682,247.347727 84.1542369,245.343803 83.1134132,243.890956 C82.0430532,242.442195 80.3950815,241.544306 78.6093931,241.436964 C76.2382232,241.266068 75.4852134,240.821841 75.2135954,239.723668 C74.8170818,238.120536 62.5254986,238.120536 62.5254986,238.120536 Z" id="Path" fill="#2F2E41"></path>
            <path d="M19.5834103,229.120536 C19.5834103,229.120536 9.09785766,232.469881 11.3053441,236.377421 C12.738988,238.799264 14.8323214,240.751833 17.3347124,242.00135 C17.3347124,242.00135 19.5215862,251.120536 25.5921705,251.120536 C28.6274861,251.120536 29.6622174,249.376085 29.9381526,247.631635 C30.190717,245.869238 29.6620403,244.083873 28.4932428,242.752111 C26.9607536,240.963956 26.7425518,240.124512 27.3096059,239.168542 C28.1374116,237.772989 19.5834103,229.120536 19.5834103,229.120536 Z" id="Path" fill="#2F2E41"></path>
            <path d="M69,128.207174 C69,128.207174 66.9748654,132.31703 58.8840634,130.77398 C50.7932614,129.235875 18.9363369,130.77398 18.9363369,130.77398 C18.9363369,130.77398 20.7034615,94.0424496 16.6580605,71.9501182 C12.6126595,49.8577868 28.5411217,37.2710432 28.5411217,37.2710432 L33.59909,32.1324866 C38.6570583,31.6230821 49.3376959,47.5679391 49.3376959,47.5679391 C52.8524727,48.1663658 56.1335802,63.3446432 58.9327445,77.7068842 C59.0982603,78.5278663 59.2540399,79.338957 59.4098195,80.1500478 C60.6998692,86.8464921 62.4962025,94.2996247 63.5720552,100.991123 C63.649945,101.465908 63.7229667,101.935747 63.7911202,102.405586 C65.0700196,111.094917 66.8088332,119.70793 69,128.207174 L69,128.207174 Z" id="Path" fill="#E6E6E6"></path>
            <path d="M32.7828897,13.3831168 C32.7828897,13.3831168 30.2241111,7.79887529 36.8769412,5.26057973 C36.8769412,5.26057973 42.5062561,-3.87728235 53.7648808,2.21463377 C53.7648808,2.21463377 61.4412214,5.26057973 61.4412214,13.3831168 C61.4412214,21.5056539 64,23.0286244 64,23.0286244 C64,23.0286244 60.1895334,19.1507351 59.1660229,16.1047989 C58.1425124,13.0588626 50.1825918,12.3678112 47.1120653,15.413762 C44.0415388,18.4597128 36.3651933,17.9520527 36.3651933,17.9520527 L36.876951,29.1205357 C36.876951,29.1205357 34.3181675,22.5209789 33.2946571,22.5209789 C32.2711466,22.5209789 31.2476264,13.3831168 32.7828897,13.3831168 Z" id="Path" fill="#2F2E41"></path>
            <path d="M64,102.120536 C51.7665104,95.5547171 31.9500345,81.1557355 25.5568267,73.3664422 C17.1296408,63.1058274 26.3220369,55.3067852 26.3220369,55.3067852 C36.7437062,48.8140827 49.2042904,71.0900968 49.2042904,71.0900968 L59.2951915,79.1718542 C59.463044,79.9810048 59.6210229,80.7804066 59.7790018,81.5798085 C61.0872792,88.1797333 62.9089732,95.5254561 64,102.120536 Z" id="Path" fill="#000000" opacity="0.2"></path>
            <path d="M100,94.3697198 C100,94.3697198 117.74139,101.081855 120.661413,93.5365195 C123.581437,85.9911842 106.654297,86.1206783 106.654297,86.1206783 L100.008981,86.9982163 L100,94.3697198 Z" id="Path" fill="#9F616A"></path>
            <path d="M23.3018906,52.4112705 C23.3018906,52.4112705 14.1536742,60.1333489 22.5384168,70.2834095 C30.9231594,80.4334701 69.4572496,102.120536 69.4572496,102.120536 L94.5575348,95.4620113 L101.660775,96.7375236 L103,83.6511675 L92.5355288,84.6535645 L65.971588,79.1033174 L49.032774,65.6162939 C49.032774,65.6162939 33.6757595,45.9898445 23.3018906,52.4112705 Z" id="Path" fill="#E6E6E6"></path>
            <polygon id="Path" fill="#000000" opacity="0.2" points="58.0281008 145.120536 60 182.120536 55 145.120536"></polygon>
            <path d="M230,119.33224 L216.17113,122.995089 C213.946836,123.584239 211.716159,122.04365 211.137685,119.518804 L211.137685,119.518804 C210.810807,118.092097 211.072991,116.572841 211.84936,115.394925 C212.625729,114.217009 213.830923,113.50994 215.120749,113.475652 L228.478492,113.120536 L230,119.33224 Z" id="Path" fill="#FFB9B9"></path>
            <path d="M228.232772,121.120536 L225,111.361869 L244.380579,104.700833 L239.236797,59.1205357 L239.236797,59.1205357 C248.49795,60.8148591 252.905572,68.1427189 252.492716,77.6051521 L255,108.707892 L228.232772,121.120536 Z" id="Path" fill="#3F3D56"></path>
            <path d="M243,50.1205357 L275,50.1205357 L275,34.2885311 C275.011286,30.012722 273.327235,25.9049686 270.313269,22.8567485 C267.339394,19.8227715 263.258452,18.1144937 258.998864,18.1205357 C250.237552,18.1366239 243.113371,25.1499457 243.004877,33.8656562 C243.002439,34.0106449 243,34.1483749 243,34.2885509 L243,50.1205357 Z" id="Path" fill="#2F2E41"></path>
            <path d="M289.182557,235.120536 L278.897265,233.962501 L266.588629,152.404484 L241.128337,234.293366 L230,234.624231 L242.645839,133.876094 L240.791129,110.881035 L272.321419,101.120536 C294.653305,116.415989 294.191129,170.440604 289.182557,235.120536 Z" id="Path" fill="#2F2E41"></path>
            <circle id="Oval" fill="#FFB9B9" cx="256" cy="35.1205357" r="12"></circle>
            <path d="M268,55.701178 L247,61.1205357 C250.538213,54.4260867 251.67036,48.176798 249.7541,42.4915041 L264.557379,40.1205357 C263.60592,45.5568501 264.840461,51.144144 268,55.701178 L268,55.701178 Z" id="Path" fill="#FFB9B9"></path>
            <path d="M273.850931,104.185538 C262.539109,111.516381 249.362158,119.937979 239.63118,111.766254 L235.00242,88.8556476 C231.323468,85.5164656 232.954919,75.2125046 237.928314,60.5254595 C238.568364,58.6364247 240.025961,57.1526885 241.880396,56.5025052 L249.549949,53.8159026 C252.94899,56.7287294 258.520754,54.9914306 265.089352,51.1205357 L272.693741,53.1420597 L276,78.4111114 C271.227315,85.697983 272.060959,95.4006609 273.850931,104.185538 Z" id="Path" fill="#3F3D56"></path>
            <path d="M265,114.332238 L251.171133,117.995091 C248.946839,118.584235 246.716165,117.04365 246.137685,114.518807 L246.137685,114.518807 C245.810807,113.0921 246.072991,111.572844 246.849359,110.394928 C247.625728,109.217011 248.830922,108.509941 250.120748,108.475651 L263.478487,108.120536 L265,114.332238 Z" id="Path" fill="#FFB9B9"></path>
            <path d="M285.920734,250.592213 C284.306922,251.381655 282.955139,246.488903 281.593861,247.922747 C277.786185,251.933418 268.651816,251.034394 268.651816,251.034394 C268.032057,250.820867 267.52094,250.34458 267.237484,249.716444 C266.954028,249.088308 266.922973,248.363144 267.15155,247.709817 L267.15155,247.709817 C267.426328,246.924443 268.043727,246.334016 268.802926,246.130583 L272.852389,245.045492 L279.210627,233.060533 L286.139983,232.120536 L286.315001,232.427319 C289.025018,237.108728 289.722652,242.814367 288.229622,248.086171 C287.653357,250.065209 286.868966,250.12836 285.920734,250.592213 Z" id="Path" fill="#2F2E41"></path>
            <path d="M237.920734,250.592213 C236.306922,251.381655 234.955139,246.488903 233.593866,247.922747 C229.786185,251.933418 220.651816,251.034394 220.651816,251.034394 C220.032057,250.820867 219.52094,250.34458 219.237484,249.716444 C218.954028,249.088308 218.922973,248.363144 219.15155,247.709817 L219.15155,247.709817 C219.426328,246.924443 220.043727,246.334016 220.802926,246.130583 L224.852389,245.045492 L231.210627,233.060533 L238.139983,232.120536 L238.315001,232.427319 C241.025018,237.108728 241.722652,242.814367 240.229622,248.086171 C239.653357,250.065209 238.868966,250.12836 237.920734,250.592213 Z" id="Path" fill="#2F2E41"></path>
            <path d="M270,24.617447 L266.993518,34.1205357 L241,33.6615818 C241.182156,26.8453425 245.701922,20.8965447 252.250207,18.8543524 C258.798493,16.8121601 265.929464,19.1274808 270,24.617447 L270,24.617447 Z" id="Path" fill="#2F2E41"></path>
            <path d="M264.232776,117.120536 L261,107.205036 L280.380601,100.436939 L273.049438,53.1205357 L273.049438,53.1205357 C282.310592,54.8420938 288.905572,63.2912999 288.492713,72.9057994 L291,104.508391 L264.232776,117.120536 Z" id="Path" fill="#3F3D56"></path>
            <polygon id="Path" fill="#CCCCCC" points="217 89.9682425 197.071568 94.1205357 193 75.1241363 200.5 65.3662708 207.249757 64.1205357 214.749757 71.4907029"></polygon>
            <polygon id="Path" fill="#E6E6E6" points="209 91.1205357 196.554434 91.1205357 194.857999 82.9596081 193 74.0165301 195.776901 70.1205357 201.113601 71.7438667 206.889555 79.5407746 208.338593 87.4852581 208.439571 88.0509644"></polygon>
            <polygon id="Path" fill="#CCCCCC" points="227.759777 85.5565861 214 87.1205357 216.453485 70.0213218 221.999758 65.1205357 226.799612 66.2675584 230 73.4619161"></polygon>
            <polygon id="Path" fill="#E6E6E6" points="230 76.6676226 228.737187 83.766682 224.633046 107.956251 208.843105 113.120536 208.2978 112.817616 199.788165 108.063738 195 83.7129383 195.023917 83.7227099 207.685527 88.9260811 207.795545 88.2176409 207.872079 87.7046325 208.843105 81.4019575 213.157715 76.6676226 227.579609 73.1205357"></polygon>
            <circle id="Oval" fill="#E6E6E6" cx="220" cy="72.1205357" r="3"></circle>
            <polygon id="Rectangle" fill="#FFFFFF" transform="translate(207.393331, 74.245310) rotate(-10.097130) translate(-207.393331, -74.245310) " points="203.365233 74.1375161 211.421482 74.1355439 211.421429 74.3531033 203.36518 74.3550755"></polygon>
            <polygon id="Path" fill="#F2F2F2" points="209 112.120536 199.943684 107.349257 194.847916 82.9093273 194.873369 82.9191347 193 74.0042485 195.799873 70.1205357 201.180719 71.7387494 207.004454 79.5110786 208.465479 87.4305182 208.54693 86.915632 208.567292 87.9944411 208.62329 91.0543361"></polygon>
            <polygon id="Path" fill="#CCCCCC" points="199.806819 107.120536 199.604521 107.066638 203.771583 91.5092491 199 85.2462959 199.166682 85.1205357 204 91.4643347"></polygon>
            <polygon id="Rectangle" fill="#CCCCCC" transform="translate(204.925913, 105.597554) rotate(-25.718700) translate(-204.925913, -105.597554) " points="204.821663 97.6493144 205.038967 97.6491939 205.030162 113.545793 204.812858 113.545913"></polygon>
            <path d="M230,82.0798569 L229.198066,86.615919 L229.157488,86.6202858 L225.567475,107.825736 L209.550149,113.073524 L209.454047,113.120536 L209.389998,112.983874 L200.366894,107.935064 L200.263314,107.906638 L200.318838,107.692353 L195.508285,83.1720551 L195.532842,83.1818915 L195,80.4902127 L195.398296,79.903116 L196.629496,78.0882569 L201.755038,79.7281912 L207.307726,87.5998766 L207.388884,88.0678033 L207.971907,91.4263932 L208.205781,92.7755065 L208.700184,95.6257161 L209.170025,92.5634069 L209.338745,91.4613772 L209.763737,88.6931678 L214.141801,83.8826936 L216.088441,83.4027347 L217.443508,83.0681912 L219.307927,82.609008 C218.125337,81.8731506 217.492996,80.4796646 217.706407,79.0797475 C217.919817,77.6798304 218.936838,76.5499183 220.282199,76.2180366 C221.62756,75.8861548 223.035599,76.4178388 223.848316,77.5646244 C224.661034,78.71141 224.717947,80.2468461 223.992459,81.4533995 L228.770959,80.2748392 L229.948766,82.0055072 L230,82.0798569 Z" id="Path" fill="#000000" opacity="0.2"></path>
            <polygon id="Path" fill="#E6E6E6" points="209 101.120536 196.555443 101.120536 193 84.0176407 195.777911 80.1205357 201.111076 81.7442065 206.88905 89.5379246"></polygon>
            <polygon id="Path" fill="#E6E6E6" points="224.631426 115.959419 208.84187 121.120536 199.789338 116.066911 195 91.71199 207.684355 96.9268534 208.84187 89.3999191 213.157679 84.6687731 227.578785 81.1205357 230 84.6687731 228.736778 91.7657364"></polygon>
            <circle id="Oval" fill="#E6E6E6" cx="220" cy="81.1205357" r="3"></circle>
            <polygon id="Path" fill="#F2F2F2" points="209 122.120536 199.943684 117.349257 194.847916 92.9093273 194.873369 92.9191347 193 84.0042485 195.799873 80.1205357 201.180719 81.7387494 207.004454 89.5110786 208.465479 97.4305182 208.54693 96.915632 208.567292 97.9944411 208.62329 101.054336"></polygon>
            <polygon id="Path" fill="#CCCCCC" points="199.806743 116.120536 199.604938 116.067111 203.771605 100.509249 199 94.2462959 199.166667 94.1205357 204 100.464808"></polygon>
            <polygon id="Rectangle" fill="#CCCCCC" transform="translate(205.317098, 114.170083) rotate(-25.718700) translate(-205.317098, -114.170083) " points="205.212849 106.221844 205.430153 106.221723 205.421348 122.118322 205.204044 122.118443"></polygon>
            <rect id="Rectangle" fill="#3F3D56" x="0" y="251.120536" width="300" height="2"></rect>
        </g>
    </g>
</svg>