<?xml version="1.0" encoding="UTF-8"?>
<svg width="300px" height="300px" viewBox="0 0 300 300" version="1.1" xmlns="http://www.w3.org/2000/svg" xmlns:xlink="http://www.w3.org/1999/xlink">
    <title>Artboard Copy 3</title>
    <g id="Artboard-Copy-3" stroke="none" stroke-width="1" fill="none" fill-rule="evenodd">
        <g id="undraw_cancel_u1it" transform="translate(5.000000, 50.000000)" fill-rule="nonzero">
            <path d="M207,137.410974 C207,155.636371 196.254834,162 183,162 C169.745166,162 159,155.636371 159,137.410974 C159,119.185577 183,96 183,96 C183,96 207,119.185579 207,137.410974 Z" id="Path" fill="#7B10F4"></path>
            <polygon id="Path" fill="#3F3D56" points="182.832132 143.91954 193 125.064857 182.87035 141.528809 182.980227 134.676204 189.987937 121.035021 183.009422 132.862509 183.206882 120.537613 190.710896 109.67777 183.237934 118.599633 183.361347 96 182.619013 124.636317 175.02025 112.84676 182.527184 127.052874 181.816168 140.817535 181.795202 140.452213 173 127.995769 181.768396 141.742944 181.679486 143.464368 181.663561 143.490462 181.670993 143.631695 179.867312 162 182.276909 162 182.566198 160.516116 191.313096 146.802568 182.587961 159.160015"></polygon>
            <path d="M290,79.0573179 C290,113.851258 269.405104,126 244,126 C218.594896,126 198,113.851258 198,79.0573179 C198,44.2633782 244,0 244,0 C244,0 290,44.2633782 290,79.0573179 Z" id="Path" fill="#F2F2F2"></path>
            <polygon id="Path" fill="#3F3D56" points="241.696299 120.11661 242.172587 91.1326334 262 55.27527 242.247362 86.5858174 242.461664 73.5533256 256.126335 47.6110046 242.518287 70.1045803 242.518287 70.1048481 242.903544 46.6653247 257.53596 26.0119548 242.96396 42.9795568 243.204813 0 241.692236 56.8972007 241.81659 54.5500077 226.939528 32.0390236 241.577905 59.0555791 240.19185 85.2333157 240.150398 84.5385851 223 60.8491837 240.098652 86.9931748 239.925259 90.2670323 239.894103 90.3163116 239.908462 90.5849371 236.391578 157 241.090239 157 241.654035 122.695469 258.710693 96.6154876"></polygon>
            <path d="M288,151.100061 C288,161.388325 220.799342,200 142.24152,200 C63.683698,200 0,180.016873 0,169.728609 C0,159.440345 62.1206042,171.669085 140.678426,171.669085 C219.236248,171.669085 288,140.811799 288,151.100061 Z" id="Path" fill="#3F3D56"></path>
            <path d="M288,151.100061 C288,161.388325 220.799342,200 142.24152,200 C63.683698,200 0,180.016873 0,169.728609 C0,159.440345 62.1206042,171.669085 140.678426,171.669085 C219.236248,171.669085 288,140.811799 288,151.100061 Z" id="Path" fill="#4B4B4B" opacity="0.414161028"></path>
            <path d="M288,151.083285 C288,161.553697 220.799342,189 142.24152,189 C63.683698,189 0,180.512053 0,170.041641 C0,159.57123 62.1205935,160.1675 140.678426,160.1675 C219.236258,160.1675 288,140.612876 288,151.083285 Z" id="Path" fill="#4B4B4B"></path>
            <ellipse id="Oval" fill="#000000" opacity="0.360972523" cx="143.5" cy="172.5" rx="60.5" ry="4.5"></ellipse>
            <path d="M96.1490566,78 C96.1490566,78 113.877498,78.3396215 110.594453,81.5660374 C107.311408,84.7924533 95,81.5660374 95,81.5660374 L96.1490566,78 Z" id="Path" fill="#A0616A"></path>
            <path d="M59.2872818,41.1206433 C59.2872818,41.1206433 66.489396,39.8382878 68.9936001,45.6352093 C71.4978042,51.4321309 76.6407771,67.9645268 76.6407771,67.9645268 C76.6407771,67.9645268 90.4040386,77.0478301 92.9074088,76.7493901 C95.4107789,76.4509501 99.6902793,77.059897 98.9052794,79.7828944 C98.1202795,82.5058918 98.4687697,85.5935674 96.661557,85.9719968 C94.8543442,86.3504263 91.9800626,82.7380964 89.7803431,84.4780259 C87.5806236,86.2179555 67.9764801,79.8627975 66.7179043,78.5460177 C65.4593286,77.2292379 55,48.7159633 55,48.7159633 C55,48.7159633 55.41838,41.027742 59.2872818,41.1206433 Z" id="Path" fill="#7B10F4"></path>
            <polygon id="Path" fill="#A0616A" points="74.1667081 162 75 169.131913 68.0000745 171 64 169.131913 64 162.849004"></polygon>
            <polygon id="Path" fill="#A0616A" points="56.1667081 167 57 174.131913 50.0000745 176 46 174.131913 46 167.849004"></polygon>
            <path d="M75.0366007,86.8049501 L78.1244501,98.1269617 L82.6749627,121.099174 C82.6749627,121.099174 83.9751106,126.678135 81.3748174,133.405708 C78.7745241,140.133281 74.061491,162.120944 75.0366007,163.43364 C76.0117103,164.746336 63.9853536,165.730861 64.1478714,164.418162 C64.3103893,163.105464 65.9355756,145.055882 65.9355756,145.055882 C65.9355756,145.055882 68.2108305,129.139429 69.3484606,127.170384 C70.4860908,125.20134 64.1478794,120.278725 64.1478794,120.278725 C64.1478794,120.278725 62.5226985,139.148745 60.084923,140.789619 C57.6471476,142.430494 57.9721752,167.863981 56.8345398,168.192168 C55.6969043,168.520355 47.4084763,169.83304 46.4333773,168.192168 C45.4582783,166.551296 46.4333773,139.148745 46.4333773,139.148745 C46.4333773,139.148745 51.9589995,118.309678 50.8213721,115.35611 C49.6837446,112.402543 50.3338159,99.7678413 50.3338159,99.7678413 C50.3338159,99.7678413 46.108339,90.0866986 48.3835966,85 L75.0366007,86.8049501 Z" id="Path" fill="#18182D"></path>
            <path d="M74,24.990137 C74,24.990137 67.2641518,33.4543364 67.5849055,37.1981158 C67.9056591,40.9418952 57,30.3616473 57,30.3616473 C57,30.3616473 64.8584913,19.6186268 64.8584913,17.3398031 C64.8584913,15.0609793 74,24.990137 74,24.990137 Z" id="Path" fill="#A0616A"></path>
            <circle id="Oval" fill="#A0616A" cx="74" cy="17" r="11"></circle>
            <path d="M47.0726158,81.1690509 C46.5807791,82.9771177 45.9705159,85.0270122 46.0577037,86.7539261 C46.1136447,87.8722011 49.122216,88.6058072 53.2822434,89.0862302 C57.1396267,89.5325633 61.9872684,89.7597845 66.3940312,89.8766477 C71.0212361,90 75.1582302,90 77.146971,90 C83.0687366,90 78.2984245,86.2670139 75.9955149,84.4816738 C73.6926053,82.6963337 74.1860869,57.3769604 74.3505825,54.1308785 C74.5150782,50.8847966 72.8701405,41.4711918 72.8701405,39.6858491 C72.8701405,37.9005063 68.9996037,33.2407668 68.9996037,33.2407668 C68.9996037,33.2407668 68.0998283,35.7905625 64.4809723,32.3821987 C60.8621163,28.9738349 56.0918042,28 56.0918042,28 C52.4729482,29.298428 46.3866896,43.5811516 46.0577037,46.015707 C45.9244521,47.0041299 46.0346704,52.0663907 46.2583806,57.8460227 C46.5824266,66.2939286 47.148295,76.2804673 47.5381431,77.340316 C47.8457379,78.1761681 47.5052542,79.5784677 47.0726158,81.1690509 Z" id="Path" fill="#7B10F4"></path>
            <polygon id="Path" fill="#A0616A" points="64.8333865 91 66 95.2452988 61.4999317 100 60 93.3772114"></polygon>
            <path d="M66.7632441,167.008749 C66.7632441,167.008749 70.1443147,171.02041 72.7203684,168.345968 C75.2964221,165.671526 75.1354193,164 75.6184305,164 C76.1014417,164 83.3465916,170.686106 83.3465916,170.686106 C83.3465916,170.686106 95.7438489,173.694852 88.9817076,175.86784 C82.2195663,178.040828 63.0601677,176.536451 63.0601677,175.86784 C63.0601677,175.199229 62.5771565,166.34014 64.3481932,166.34014 L66.7632441,167.008749 Z" id="Path" fill="#2F2E41"></path>
            <path d="M47.7632437,172.008749 C47.7632437,172.008749 51.1443141,176.02041 53.7203676,173.345968 C56.2964211,170.671526 56.1354183,169 56.6184294,169 C57.1014406,169 64.3465899,175.686106 64.3465899,175.686106 C64.3465899,175.686106 76.7438488,178.694852 69.9817081,180.86784 C63.2195673,183.040828 44.0601677,181.536451 44.0601677,180.86784 C44.0601677,180.199229 43.5771565,171.34014 45.3481931,171.34014 L47.7632437,172.008749 Z" id="Path" fill="#2F2E41"></path>
            <path d="M62.1779406,25.6790511 C61.8340161,25.9041374 61.3862915,26.1322211 61.0419253,25.9078313 C59.7616155,22.6731751 58.8046357,19.3166423 58.1853407,15.8885811 C57.9679172,14.6844628 57.8169965,13.3458655 58.4773295,12.3207062 C58.7377618,11.9163851 59.1126744,11.5857471 59.3034359,11.1433295 C59.5923309,10.473321 59.4021855,9.69778486 59.4981612,8.97314147 C59.6992354,7.45502001 61.115848,6.39616795 62.5403723,5.88263869 C63.9648965,5.36910944 65.5120743,5.20981218 66.8699238,4.53596509 C68.1592369,3.89612684 69.1918699,2.83498716 70.387439,2.02973885 C71.5830081,1.22449054 73.1144209,0.673912109 74.4458675,1.21804289 C75.6237121,1.69940626 76.3573967,2.91562958 77.470682,3.53489002 C78.226171,3.95512532 79.1029042,4.07206153 79.9461956,4.25244823 C82.2900261,4.75620672 84.4905592,5.79188522 86.382229,7.28156044 C86.8424925,7.6141593 87.2393577,8.02860713 87.5535371,8.5047618 C88.9821969,10.8875506 86.4242779,14.1270564 87.5527888,16.6697586 L85.1130387,14.7195217 C84.4615042,14.1421942 83.726704,13.6691209 82.9340831,13.3166837 C82.1259391,13.0065834 81.1688894,12.9691351 80.4347924,13.431043 C79.4045683,14.0792897 79.1251767,15.4335949 78.7652915,16.6068358 C78.4054063,17.7800766 77.6096215,19.0810917 76.3972032,19.0510339 C74.7483936,19.0101595 74.1717723,16.679126 72.6920784,15.9411132 C71.727482,15.4600177 70.5133159,15.7768443 69.6909776,16.4785097 C68.8687,17.1801243 68.3752722,18.1981663 68.0133879,19.2237166 C67.7872357,19.8646076 67.5750398,20.5870625 67.1733622,21.1425965 C66.7303443,21.7553102 66.1637104,21.8046011 65.6905375,22.2621508 C64.4588506,23.4531755 63.7015714,24.6818843 62.1779406,25.6790511 Z" id="Path" fill="#2F2E41"></path>
            <path d="M46.8087524,81.1708736 C48.8396378,84.1380548 51.1286692,87.1990327 52.9765459,89.1985509 C56.8079422,89.6511133 61.6229254,89.8815058 66,90 C65.2180246,88.9320913 64.2402567,88.0248892 63.119518,87.3274033 C60.9955212,86.0108346 55.9305743,70.3767975 55.9305743,70.3767975 C55.9305743,70.3767975 62.1392173,54.2490444 63.7730705,48.1599953 C65.4069237,42.0709461 59.0348958,38.6149993 59.0348958,38.6149993 C56.093951,36.1464627 51.0290041,41.9063751 51.0290041,41.9063751 C51.0290041,41.9063751 48.4442366,49.7595969 46,57.5223186 C46.3218629,66.0881297 46.8839191,76.2140478 47.2711407,77.2886886 C47.5766659,78.1362199 47.2384761,79.558091 46.8087524,81.1708736 Z" id="Path" fill="#000000" opacity="0.1"></path>
            <path d="M59.3116995,37.6147079 C59.3116995,37.6147079 65.6803284,41.0690246 64.0473461,47.1552013 C62.4143638,53.2413781 56.2090326,69.3615233 56.2090326,69.3615233 C56.2090326,69.3615233 61.2712799,84.9881854 63.3941526,86.3041249 C65.5170253,87.6200644 68.4563999,90.7453887 66.1702241,92.3903017 C63.8840484,94.0352146 62.2510661,96.6670747 60.6180838,95.8446183 C58.9851014,95.0221618 58.9851014,90.4164072 56.2090326,90.4164072 C53.4329637,90.4164072 42.1653853,73.3093149 42.0020876,71.4999112 C41.8387899,69.6905075 51.3100857,40.9045338 51.3100857,40.9045338 C51.3100857,40.9045338 56.3723303,35.1473385 59.3116995,37.6147079 Z" id="Path" fill="#7B10F4"></path>
            <path d="M192.316713,82.5310934 L190.468904,80.6832866 C188.224521,78.4389045 184.585658,78.4389045 182.341275,80.6832866 L146.5,116.524563 L110.658724,80.6832866 C108.414341,78.4389045 104.775479,78.4389045 102.531096,80.6832866 L100.683289,82.5310934 C99.6054972,83.6088839 99,85.0706823 99,86.5949091 C99,88.119136 99.6054972,89.5809344 100.683289,90.6587249 L136.524562,126.5 L100.683289,162.341275 C99.6054972,163.419066 99,164.880864 99,166.405091 C99,167.929318 99.6054972,169.391116 100.683289,170.468907 L102.531096,172.316713 C104.775479,174.561096 108.414341,174.561096 110.658724,172.316713 L146.5,136.475437 L182.341275,172.316713 C184.585658,174.561096 188.224521,174.561096 190.468904,172.316713 L192.316713,170.468907 C194.561096,168.224523 194.561096,164.585659 192.316713,162.341275 L156.475438,126.5 L192.316713,90.6587249 C194.561096,88.414341 194.561096,84.7754773 192.316713,82.5310934 L192.316713,82.5310934 Z" id="Path" fill="#F4406F"></path>
            <path d="M99,164 L134,129.333704 L133.663084,129 L100.287267,162.057597 C99.7282177,162.610767 99.2900459,163.27194 99,164 L99,164 Z" id="Path" fill="#000000" opacity="0.1"></path>
            <path d="M99.7785562,83.6339397 C102.008807,81.4193127 105.624756,81.4193127 107.855006,83.6339397 L143.470545,119 L179.086073,83.6339397 C181.316323,81.4193127 184.932272,81.4193127 187.162523,83.6339397 L188.998691,85.4572469 C190.608616,87.0562268 191.108066,89.452112 190.2697,91.554341 L191.327313,90.5041365 C192.398316,89.4406384 193,87.9982232 193,86.4942072 C193,84.9901912 192.398316,83.5477761 191.327313,82.4842779 L189.491144,80.6609707 C187.260892,78.4463466 183.644946,78.4463466 181.414694,80.6609707 L145.799161,116.027028 L110.183627,80.6609681 C107.953376,78.446344 104.337429,78.446344 102.107177,80.6609681 L100.271009,82.4842753 C99.7190201,83.0318529 99.2863826,83.6863421 99,84.4070425 L99.7785562,83.6339397 Z" id="Path" fill="#000000" opacity="0.1"></path>
            <path d="M156.687018,126 L154,128.696217 L189.959992,164.779277 C191.585494,166.410678 192.089775,168.855146 191.243293,171 L192.311135,169.928474 C193.392497,168.843415 194,167.371757 194,165.837249 C194,164.302741 193.392497,162.831083 192.311135,161.746024 L156.687018,126 Z" id="Path" fill="#000000" opacity="0.1"></path>
            <path d="M42,150.509146 C42,165.696979 33.0456947,171 22,171 C10.9543053,171 2,165.696979 2,150.509146 C2,135.321313 22,116 22,116 C22,116 42,135.321316 42,150.509146 Z" id="Path" fill="#7B10F4"></path>
            <polygon id="Path" fill="#3F3D56" points="21.3572627 155.93306 30 140.220741 21.3898573 153.94078 21.4832953 148.23008 27.4396919 136.862395 21.5080128 146.718797 21.6758752 136.448067 28.0541007 127.397916 21.7022225 134.833135 21.8070686 116 21.1760909 139.863636 14.7171937 130.039084 21.0978638 141.87724 20.4937767 153.348035 20.4758496 153.043565 13 142.663248 20.4530334 154.119197 20.3775225 155.553822 20.3639414 155.575416 20.3701887 155.693101 18.8371547 171 20.8854554 171 21.1312733 169.763496 28.566108 158.335619 21.1497436 168.633341"></polygon>
        </g>
    </g>
</svg>