<?xml version="1.0" encoding="UTF-8"?>
<svg width="300px" height="300px" viewBox="0 0 300 300" version="1.1" xmlns="http://www.w3.org/2000/svg" xmlns:xlink="http://www.w3.org/1999/xlink">
    <title>On my way</title>
    <g id="On-my-way" stroke="none" stroke-width="1" fill="none" fill-rule="evenodd">
        <g id="undraw_Address_re_yaoj" transform="translate(131.500000, 150.432584) scale(-1, 1) translate(-131.500000, -150.432584) translate(-60.000000, 9.932584)" fill-rule="nonzero">
            <path d="M205.987678,269.407264 C205.903314,272.616038 205.375822,275.796703 204.420747,278.855513 C204.399571,278.926504 204.376068,278.996425 204.353198,279.067416 L198.506216,279.067416 C198.51234,279.003762 198.518705,278.932758 198.524851,278.855513 C198.914677,274.288152 196.687518,246.82122 194,242.067416 C194.235477,242.45304 206.441025,254.894692 205.987678,269.407264 Z" id="e17a72e2-051a-4020-aba1-9f6eb9c0d39e" fill="#F1F1F1"></path>
            <path d="M205.481061,278.859407 C205.432769,278.929093 205.382585,278.998793 205.331153,279.067416 L201,279.067416 C201.032825,279.0081 201.070872,278.938414 201.114984,278.859407 C201.830433,277.55119 203.948132,273.639687 205.913837,269.58479 C208.025455,265.22719 209.964416,260.704369 209.801127,259.067416 C209.85173,259.436401 211.313562,270.691348 205.481061,278.859407 Z" id="eeb1bfad-c599-4325-99ca-33d947eaa4a4" fill="#F1F1F1"></path>
            <path d="M176.991785,272.540288 C176.935541,274.708377 176.583879,276.857473 175.947163,278.924234 C175.933045,278.972202 175.917378,279.019443 175.902129,279.067416 L172.004132,279.067416 C172.008225,279.024407 172.012463,278.976434 172.01656,278.924234 C172.276442,275.838179 170.791669,257.279443 169,254.067416 C169.156971,254.32797 177.294017,262.734493 176.991785,272.540288 Z" id="a04afbcd-fd0f-46da-9369-89d0f07bdf03" fill="#F1F1F1"></path>
            <path d="M175.489487,278.932206 C175.462655,278.977503 175.434776,279.022805 175.406202,279.067416 L173,279.067416 C173.018239,279.028862 173.039376,278.983564 173.063883,278.932206 C173.461354,278.081888 174.637851,275.539389 175.729904,272.903708 C176.903034,270.071264 177.98022,267.131434 177.889512,266.067416 C177.917629,266.307256 178.729756,273.622976 175.489487,278.932206 Z" id="a6089e43-5613-4c9c-8352-b83c87f66fb2" fill="#F1F1F1"></path>
            <polygon id="Path" fill="#FFFFFF" points="94.9240621 0.0674157303 52 71.2291752 176.075938 147.067416 219 75.9056562"></polygon>
            <path d="M94.9240621,0.0674157303 L52,71.2291752 L176.075938,147.067416 L219,75.9056562 L94.9240621,0.0674157303 Z M175.270364,143.749437 L55.2961036,70.4182408 L95.7296362,3.38539404 L215.703909,76.7165907 L175.270364,143.749437 Z" id="Shape" fill="#E5E5E5"></path>
            <polygon id="Rectangle" fill="#E5E5E5" transform="translate(140.873481, 62.498345) rotate(-58.734187) translate(-140.873481, -62.498345) " points="140.127551 -8.59988645 142.540525 -8.61541085 141.619411 133.596577 139.206437 133.612102"></polygon>
            <polygon id="Rectangle" fill="#E5E5E5" transform="translate(123.883847, 90.889090) rotate(-58.734130) translate(-123.883847, -90.889090) " points="123.137918 19.7909686 125.550888 19.7754442 124.629775 161.987211 122.216805 162.002736"></polygon>
            <polygon id="Rectangle" fill="#E5E5E5" transform="translate(107.353070, 57.059742) rotate(-58.734130) translate(-107.353070, -57.059742) " points="65.7733275 56.1288906 148.948336 55.5937652 148.932812 57.990594 65.7578031 58.5257195"></polygon>
            <polygon id="Path" fill="#E5E5E5" points="196 64.3140341 153.133191 135.067416 151 133.961475 193.951895 63.0674157"></polygon>
            <polygon id="Path" fill="#E5E5E5" points="155 135.067416 154.031099 134.477793 151.867718 133.356061 151.78756 133.112397 150.604906 129.543051 141.856329 103.156231 140.673675 99.5868843 125.632063 54.2109658 124.448971 50.6416195 120.197109 37.8099732 119.191853 34.7762484 112.183092 13.636762 111 10.0674157 114.212878 12.0224341 115.395532 15.5917804 120.848445 32.0419447 121.853263 35.0756696 127.661848 52.5970769 128.844503 56.1664232 143.886115 101.542342 145.069207 105.111688 153.526062 130.618245 153.817346 131.498508 154.531318 133.65197"></polygon>
            <path d="M150,111.347633 L148.798896,111.347633 L148.798896,78.233177 C148.798901,73.1501057 146.792508,68.2752219 143.2211,64.6809445 C139.649692,61.086667 134.805821,59.0674157 129.755083,59.0674157 L60.043865,59.0674157 C54.9931276,59.0674157 50.1492512,61.0866376 46.5778336,64.6809046 C43.006416,68.2751715 41,73.1500493 41,78.2331202 L41,259.901654 C41,264.984726 43.0063888,269.85961 46.5777965,273.453887 C50.1492042,277.048164 54.9930751,279.067416 60.0438129,279.067416 L129.754992,279.067416 C140.272608,279.067416 148.798845,270.486676 148.798879,259.901729 L148.798879,134.919071 L150,134.919071 L150,111.347633 Z" id="Path" fill="#3F3D56"></path>
            <path d="M129.84908,65.0674157 L120.794771,65.0674157 C121.64032,67.163889 121.398451,69.5484767 120.149646,71.4276885 C118.900841,73.3069003 116.808972,74.4341415 114.570125,74.4343137 L74.8323222,74.4343137 C72.5934708,74.4341523 70.5015941,73.3069135 69.2527869,71.4276982 C68.0039796,69.5484829 67.7621151,67.1638888 68.6076763,65.0674157 L60.1509285,65.0674157 C52.3356021,65.0674157 46,71.4745953 46,79.3782759 L46,260.756516 C46,264.552 47.4908908,268.192032 50.1446998,270.875847 C52.7985088,273.559661 56.3978476,275.067416 60.1509026,275.067416 L129.84908,275.067416 C133.602135,275.067416 137.201476,273.55967 139.855288,270.875859 C142.5091,268.192048 144,264.552018 144,260.756534 L144,260.756534 L144,79.3782934 C144,75.5828089 142.509103,71.9427778 139.85529,69.258967 C137.201477,66.5751562 133.602135,65.0674157 129.84908,65.0674157 L129.84908,65.0674157 Z" id="Path" fill="#FFFFFF"></path>
            <rect id="Rectangle" fill="#6C63FF" x="81" y="114.067416" width="29" height="8"></rect>
            <rect id="Rectangle" fill="#E5E5E5" x="79" y="145.067416" width="33" height="8"></rect>
            <rect id="Rectangle" fill="#E5E5E5" x="59" y="161.067416" width="72" height="8"></rect>
            <rect id="Rectangle" fill="#E5E5E5" x="59" y="176.067416" width="72" height="8"></rect>
            <rect id="Rectangle" fill="#6C63FF" x="81" y="212.067416" width="29" height="11"></rect>
            <circle id="Oval" fill="#6C63FF" cx="161" cy="57.0674157" r="3"></circle>
            <path d="M244.025931,196.581098 C245.096608,196.013179 245.864708,194.992592 246.123552,193.793953 C246.382396,192.595315 246.105394,191.341752 245.367082,190.370571 L250,182.146812 L245.767901,178.067416 L239.385864,189.774313 C237.82807,191.173359 237.546386,193.535099 238.730192,195.271693 C239.913998,197.008288 242.189111,197.570824 244.025931,196.581098 L244.025931,196.581098 Z" id="Path" fill="#FFB7B7"></path>
            <polygon id="Path" fill="#FFB7B7" points="268.999087 274.067416 262.901283 274.067416 260 251.067416 269 251.067862"></polygon>
            <path d="M269.999674,279.067416 L252,279.066677 L252,278.814906 C252.000268,274.536163 255.136807,271.067648 259.005968,271.067416 L259.006411,271.067416 L270,271.06791 L269.999674,279.067416 Z" id="Path" fill="#2F2E41"></path>
            <polygon id="Path" fill="#FFB7B7" points="317 266.267242 312.194987 269.067416 300 250.199905 307.091522 246.067416"></polygon>
            <path d="M322,270.504227 L305.946879,279.067416 L305.838304,278.864838 C303.993491,275.421908 305.295106,271.138755 308.745673,269.297719 L308.74607,269.297508 L318.550784,264.067416 L322,270.504227 Z" id="Path" fill="#2F2E41"></path>
            <path d="M290.781014,185.067416 L292.066131,211.856705 C292.066131,211.856705 295.031226,212.980827 293.993807,217.325798 C293.993807,217.325798 292.53879,222.331406 295.829678,222.331406 C299.120567,222.331406 312,253.261317 312,253.261317 L303.583168,257.567792 L281.474929,225.155874 L275.190361,203.510176 L271.823628,228.102423 L271.599179,266.067416 L260.60118,264.820804 L257.458918,220.96274 L256,187.530879 L290.781014,185.067416 Z" id="Path" fill="#2F2E41"></path>
            <polygon id="Path" fill="#3F3D56" points="252 194.067416 254.751239 173.993066 264.282036 127.067416 282.395304 128.098252 291.043176 144.871382 289.540677 177.589375 293 190.506623"></polygon>
            <path d="M259.42336,165.893645 L248.631278,186.938384 L246.940962,191.067416 L242,185.07366 L248.773268,160.558084 C248.773268,160.558084 254.901461,130.161412 264.643903,127.067416 L267,127.461607 L259.42336,165.893645 Z" id="Path" fill="#3F3D56"></path>
            <path d="M284.247113,189.837783 C285.346726,189.447112 286.223616,188.56954 286.641829,187.441202 C287.060043,186.312865 286.976622,185.049667 286.414012,183.991506 L292,176.683865 L288.56148,172.067416 L280.812232,182.502551 C279.130116,183.628895 278.523204,185.886778 279.399532,187.75819 C280.275861,189.629602 282.358438,190.523019 284.247113,189.837783 L284.247113,189.837783 Z" id="Path" fill="#FFB7B7"></path>
            <path d="M280,130.200753 L283.021888,127.067416 C283.021888,127.067416 286.571681,128.495296 289.127337,135.867416 C291.682992,143.239536 300,163.20075 300,163.20075 L291.859408,181.067416 L286.370669,177.13408 L289.330885,161.400751 L280,130.200753 Z" id="Path" fill="#3F3D56"></path>
            <ellipse id="Oval" fill="#FFB7B7" cx="271" cy="115.567416" rx="9" ry="9.5"></ellipse>
            <path d="M279.587167,107.626279 L280.056842,106.649657 L277.693533,105.436585 C277.693533,105.436585 275.086428,101.054087 270.368771,102.285665 C265.651114,103.517242 263.528569,104.254314 263.528569,104.254314 L261.171241,105.479717 L262.354375,106.695871 L260.231878,107.43297 L261.649855,108.160811 L260,109.140511 L260.888148,114.162797 C260.888148,114.162797 262.363304,110.353588 265.199255,111.809266 C268.035205,113.264944 273.22259,111.056763 273.22259,111.056763 L277.729284,120.067416 C277.729284,120.067416 278.659013,116.90872 280.316672,117.750983 C280.316703,117.751006 284.551582,110.783347 279.587167,107.626279 Z" id="Path" fill="#2F2E41"></path>
            <path d="M382.569663,280.067416 L0.430337079,280.067416 C0.192668473,280.067416 0,279.843558 0,279.567416 C0,279.291273 0.192668473,279.067416 0.430337079,279.067416 L382.569663,279.067416 C382.807332,279.067416 383,279.291273 383,279.567416 C383,279.843558 382.807332,280.067416 382.569663,280.067416 Z" id="Path" fill="#CBCBCB"></path>
        </g>
    </g>
</svg>