<?xml version="1.0" encoding="UTF-8"?>
<svg width="300px" height="300px" viewBox="0 0 300 300" version="1.1" xmlns="http://www.w3.org/2000/svg" xmlns:xlink="http://www.w3.org/1999/xlink">
    <title>Wave</title>
    <g id="Wave" stroke="none" stroke-width="1" fill="none" fill-rule="evenodd">
        <g id="undraw_i_can_fly_7egl" transform="translate(0.000000, 47.000000)">
            <path d="M217.354571,47.2744801 C217.845183,37.8999291 225.589287,30.5503723 234.976667,30.5501959 C235.512981,30.5501959 236.042575,30.5781649 236.566702,30.6250097 C240.761757,23.407893 248.477809,18.9656637 256.825578,18.9617139 C265.173347,18.9577693 272.893596,23.3926996 277.095474,30.6058458 C277.537653,30.5726363 277.982805,30.5501959 278.433471,30.5501959 C287.820851,30.5503738 295.564954,37.8999298 296.055567,47.2744801" id="Path" fill="#F2F2F2" fill-rule="nonzero"></path>
            <path d="M221.029958,45.9170339 C221.52057,36.5424829 229.264674,29.1929262 238.652054,29.1927498 C239.188368,29.1927498 239.717962,29.2207187 240.242089,29.2675635 C244.437144,22.0504469 252.153196,17.6082176 260.500965,17.6042677 C268.848734,17.6003231 276.568983,22.0352534 280.770861,29.2483996 C281.21304,29.2151901 281.658192,29.1927498 282.108858,29.1927498 C291.496238,29.1929276 299.240341,36.5424836 299.730954,45.9170339" id="Path" stroke="#4B4B4B"></path>
            <path d="M20.6669127,146.719787 C22.2540757,115.881893 47.7596479,91.3660417 78.9922173,91.3660417 C80.7673007,91.3660417 82.5201445,91.4586169 84.2548952,91.6136654 C98.1396147,67.7265783 123.678066,53.0237645 151.307366,53.0106903 C178.936665,52.9976335 204.489011,67.6762872 218.396316,91.5502318 C219.859827,91.4403084 221.333174,91.3660417 222.82479,91.3660417 C254.05736,91.3660417 279.562932,115.881893 281.150095,146.719787" id="Path" fill="#EBEFF2" fill-rule="nonzero"></path>
            <path d="M32.831645,142.226948 C34.418808,111.38904 59.9243802,86.8731882 91.1569525,86.8731882 C92.932033,86.8731882 94.6848768,86.9657633 96.4196275,87.1208118 C110.30435,63.2337263 135.842803,48.5309153 163.472102,48.5178441 C191.101402,48.5047903 216.653746,63.1834467 230.561048,87.0573928 C232.02456,86.9474694 233.497906,86.8732027 234.989523,86.8732027 C266.222092,86.8732027 291.727667,111.389054 293.314827,142.226948" id="Path" stroke="#4B4B4B"></path>
            <path d="M0,40.290969 C0.663829579,27.6066721 11.1420388,17.6623075 23.8436945,17.662065 C24.5693598,17.662065 25.2859292,17.6999127 25.9951048,17.7632939 C31.6712511,7.99812255 42.1115082,1.98753215 53.406515,1.98218851 C64.7015219,1.976852 75.1474577,7.97756779 80.8328351,17.7373676 C81.4311271,17.6924287 82.0334433,17.662065 82.6432202,17.662065 C95.3448759,17.6623075 105.823085,27.6066721 106.486915,40.290969" id="Path" fill="#EBEFF2" fill-rule="nonzero"></path>
            <path d="M4.97300776,38.4542677 C5.63683734,25.7699708 16.1150465,15.8256063 28.8167022,15.8253637 C29.5423647,15.8253637 30.258937,15.8632114 30.9681125,15.9265897 C36.64426,6.16141992 47.0845167,0.150830855 58.3795228,0.14548722 C69.6745289,0.140150707 80.1204643,6.14086516 85.8058429,15.9006634 C86.4041348,15.8557274 87.006451,15.8253637 87.6162279,15.8253637 C100.317884,15.8256063 110.796093,25.7699708 111.459922,38.4542677" id="Path" stroke="#4B4B4B"></path>
            <g id="Group" transform="translate(106.719080, 31.671567)" fill-rule="nonzero">
                <path d="M52.8809078,26.9006379 C52.8809078,26.9006379 56.9546226,36.7939454 50.8440504,39.1217824 C50.8440504,39.1217824 59.5734393,42.9045177 61.6102967,42.0315788 C63.6471542,41.1586399 65.1020523,39.1217824 65.1020523,38.5398232 C65.1020523,37.9578639 63.0651949,37.6668843 63.0651949,37.6668843 C63.0651949,37.6668843 59.2824597,37.9578639 62.192256,28.3555361 L52.8809078,26.9006379 Z" id="Path" fill="#FBBEBE"></path>
                <circle id="Oval" fill="#FBBEBE" cx="57.5365819" cy="24.8637805" r="7.27449079"></circle>
                <ellipse id="Oval" fill="#18182D" cx="52.735418" cy="23.2633925" rx="6.40155189" ry="9.02036857"></ellipse>
                <ellipse id="Oval" fill="#18182D" cx="48.0797439" cy="20.3535962" rx="6.40155189" ry="9.02036857"></ellipse>
                <ellipse id="Oval" fill="#18182D" cx="41.678192" cy="13.8065545" rx="3.20077595" ry="4.51018429"></ellipse>
                <path d="M64.8110727,37.3759047 C64.8110727,37.3759047 66.5569505,33.8841491 72.9585024,32.1382713 C79.3600543,30.3923935 91.8721784,9.44186004 91.8721784,9.44186004 C91.8721784,9.44186004 91.2902191,-3.07026411 94.2000155,0.712471094 C97.1098118,4.4952063 94.7819747,12.0606767 94.7819747,12.0606767 L87.2734839,25.0298862 C85.8725663,27.4505118 84.1199497,29.6496816 82.0729796,31.5554391 C77.4307604,35.8763178 69.1363161,43.4864769 68.3028283,43.4864769 C67.1389097,43.4864769 64.8110727,37.3759047 64.8110727,37.3759047 Z" id="Path" fill="#FBBEBE"></path>
                <path d="M54.6267856,87.1334216 C54.6267856,87.1334216 56.663643,111.86669 56.0816837,114.194527 C55.4997245,116.522364 53.7538467,121.178039 56.663643,134.854081 C59.5734393,148.530124 56.0816837,147.657185 56.0816837,147.657185 L65.3930319,151.7309 C65.3930319,151.7309 62.192256,136.018 62.7742153,131.653305 C63.3561745,127.288611 63.0651949,118.268242 64.8110727,112.15767 C66.5569505,106.047098 66.8479301,88.8792994 66.8479301,88.8792994 L54.6267856,87.1334216 Z" id="Path" fill="#FBBEBE"></path>
                <path d="M54.6267856,87.1334216 C54.6267856,87.1334216 56.663643,111.86669 56.0816837,114.194527 C55.4997245,116.522364 53.7538467,121.178039 56.663643,134.854081 C59.5734393,148.530124 56.0816837,147.657185 56.0816837,147.657185 L65.3930319,151.7309 C65.3930319,151.7309 62.192256,136.018 62.7742153,131.653305 C63.3561745,127.288611 63.0651949,118.268242 64.8110727,112.15767 C66.5569505,106.047098 66.8479301,88.8792994 66.8479301,88.8792994 L54.6267856,87.1334216 Z" id="Path" fill="#000000" opacity="0.1"></path>
                <path d="M65.0307652,148.582803 C64.3093278,149.083925 62.4561251,149.592502 58.991483,145.911319 C58.991483,145.911319 56.9546255,143.001523 55.2087478,145.911319 C53.46287,148.821115 54.6267885,149.112095 55.790707,150.566993 C56.9142754,151.97145 65.9012977,161.510519 69.6641212,161.123231 C69.7948953,161.110404 69.9238647,161.083251 70.048709,161.04226 C73.5404645,159.878341 68.5938108,156.095606 68.5938108,156.095606 C68.5938108,156.095606 65.3507381,151.106263 65.3322463,148.750168 C65.3342756,148.677678 65.2957569,148.610092 65.2323526,148.574894 C65.1689482,148.539695 65.0912169,148.542745 65.0307652,148.582803 Z" id="Path" fill="#3F3D56"></path>
                <path d="M47.6432744,84.2236253 C47.6432744,84.2236253 42.6966207,95.5718309 40.6597633,101.391424 C39.5904131,104.44671 36.3556304,105.416763 33.5238574,105.648965 C30.0224771,105.921509 26.6211602,106.946518 23.5522036,108.653987 C19.479577,110.939964 13.9223229,113.5341 10.3978874,113.030612 C4.28731517,112.157673 9.2339689,121.760001 9.2339689,121.760001 C9.2339689,121.760001 18.2543375,116.231388 26.6927468,115.649428 C35.1311561,115.067469 44.1515247,114.19453 48.2252395,108.956897 C52.2989544,103.719264 62.1922618,87.1334245 62.1922618,87.1334245 L47.6432744,84.2236253 Z" id="Path" fill="#FBBEBE"></path>
                <path d="M9.52494271,120.3051 C9.52494271,120.3051 6.6151464,118.268242 8.94298345,116.231385 C11.2708205,114.194527 12.1437594,112.44865 12.1437594,112.44865 C12.1437594,112.44865 8.07004456,108.083955 6.6151464,110.411792 C5.16024824,112.739629 -1.24130365,123.214896 0.213594509,126.415672 C1.66849267,129.616448 3.12339082,130.489387 4.86926861,126.997631 C6.6151464,123.505876 11.0182967,120.756872 11.0182967,120.756872 L9.52494271,120.3051 Z" id="Path" fill="#3F3D56"></path>
                <path d="M63.6471542,38.8308028 C63.6471542,38.8308028 62.6798564,40.7654013 53.6907041,38.902765 C51.2545505,38.3657768 48.7609307,39.528944 47.606902,41.7405991 C46.4793559,43.9956913 46.3338661,47.2692121 50.2620911,51.342927 C50.2620911,51.342927 57.2456023,59.199377 53.7538467,62.400153 C50.2620911,65.6009289 70.3396857,60.3632955 70.3396857,60.3632955 C70.3396857,60.3632955 67.720869,58.6174177 70.0487061,53.3797844 C71.8777225,49.2645002 71.7307458,46.94557 70.3134975,45.1527165 C69.4580417,44.0374032 68.8761397,42.7369715 68.6145518,41.3559211 C68.2172221,39.4080657 67.2357041,36.9671306 64.8110756,36.7939425 C64.8110756,36.7939425 62.262321,36.6446699 62.0818001,37.3012596 C61.9012793,37.9578494 64.2291134,38.5398232 63.6471542,38.8308028 Z" id="Path" fill="#7B10F4"></path>
                <path d="M53.0084238,45.0034614 C52.9483278,44.593151 52.8747798,44.1854624 52.8232676,43.7739852 C52.6474054,42.3691617 51.9795315,38.9653052 49.6688709,39.5509978 C46.7703355,40.2857039 43.5695596,47.5601947 43.5695596,47.5601947 C43.5695596,47.5601947 40.9507429,55.7076243 37.1680077,57.7444818 C33.3852725,59.7813392 22.9100058,70.2566059 22.9100058,70.2566059 C22.9100058,70.2566059 14.1806168,72.584443 17.3813928,74.91228 C20.5821687,77.2401171 24.6558835,73.4573819 24.6558835,73.4573819 L34.9473966,67.2824827 C38.5470508,65.1172356 41.6420544,62.2072476 44.0247972,58.7477184 C46.168805,55.6425526 48.8536275,52.0538542 50.5549621,50.8680802 C51.5854124,50.17912 52.3586652,49.1682749 52.7539417,47.9934342 C53.0646555,47.0290198 53.1516828,46.0065143 53.0084238,45.0034614 L53.0084238,45.0034614 Z" id="Path" fill="#FBBEBE"></path>
                <path d="M55.4997245,61.8181937 C55.4997245,61.8181937 42.1146614,60.0723159 34.549191,69.0926845 C26.9837206,78.1130531 21.4551076,75.4942364 22.0370669,76.9491345 C22.6190261,78.4040327 50.5530707,95.5718309 66.8479301,93.5349735 C76.7682114,92.2949376 82.0510572,91.1627504 84.6661871,90.4666951 C85.7886277,90.1781054 86.77852,89.5141158 87.4713617,88.5850695 C87.8594256,88.0708456 88.3404974,87.6339715 88.8896255,87.2971064 C89.4594171,86.9227869 89.8531224,86.3334678 89.9807963,85.6637836 C90.1084702,84.9940994 89.9592052,84.3012642 89.5671018,83.7435613 C84.9522201,77.0667834 72.423548,59.3802296 68.8847875,58.9083974 C64.5200931,58.3264381 55.4997245,61.8181937 55.4997245,61.8181937 Z" id="Path" fill="#7B10F4"></path>
                <ellipse id="Oval" fill="#18182D" cx="57.6820717" cy="17.0073305" rx="4.6556741" ry="3.34626576"></ellipse>
            </g>
        </g>
    </g>
</svg>